<?xml version="1.0" standalone="no"?>
<!DOCTYPE svg PUBLIC "-//W3C//DTD SVG 20010904//EN"
 "http://www.w3.org/TR/2001/REC-SVG-20010904/DTD/svg10.dtd">
<svg version="1.0" xmlns="http://www.w3.org/2000/svg"
 width="321.000000pt" height="321.000000pt" viewBox="0 0 321.000000 321.000000"
 preserveAspectRatio="xMidYMid meet">
<metadata>
Created by potrace 1.14, written by Peter Selinger 2001-2017
</metadata>
<g transform="translate(0.000000,321.000000) scale(0.100000,-0.100000)"
fill="#000000" stroke="none">
<path d="M607 3189 c-50 -38 -57 -64 -57 -229 0 -169 8 -197 63 -230 30 -19
53 -20 385 -20 l352 0 0 -333 0 -332 -182 -245 c-100 -135 -214 -290 -255
-345 -40 -55 -125 -170 -188 -255 -63 -85 -160 -216 -215 -290 -54 -74 -174
-236 -266 -360 -92 -124 -175 -238 -185 -255 -54 -95 -13 -228 87 -274 44 -21
49 -21 1450 -21 1052 0 1417 3 1446 12 52 15 114 86 126 141 4 23 4 62 0 86
-8 47 -17 60 -237 356 -77 105 -201 271 -275 370 -172 232 -402 543 -424 573
-9 13 -31 42 -48 65 -17 23 -100 134 -183 247 l-151 204 0 328 0 328 354 0
c351 0 353 0 387 23 56 38 60 54 57 239 l-3 168 -33 32 -32 33 -973 2 c-971 3
-972 3 -1000 -18z m108 -88 c-3 -5 -1 -12 5 -16 5 -3 10 -2 10 3 0 6 7 13 15
16 10 3 6 -7 -11 -29 -14 -19 -22 -35 -16 -35 6 0 17 9 25 20 10 14 20 18 33
13 17 -6 17 -5 5 10 -7 9 -9 17 -3 17 15 0 22 -26 9 -39 -8 -8 -8 -11 1 -11 6
0 16 8 22 18 11 16 11 16 6 -1 -4 -12 -2 -17 6 -14 7 2 12 13 10 25 -4 29 12
35 33 12 21 -24 13 -27 -9 -4 -9 8 -16 11 -16 5 0 -6 9 -20 19 -30 19 -19 19
-18 28 2 9 19 10 17 10 -11 0 -18 -3 -28 -7 -22 -4 7 -10 11 -14 11 -20 -3
-26 0 -21 9 9 14 -7 12 -29 -5 -13 -10 -24 -11 -36 -5 -17 9 -30 4 -30 -11 0
-5 8 -6 18 -3 14 5 14 4 2 -5 -25 -18 -3 -23 29 -6 28 14 34 14 62 0 17 -9 33
-14 36 -11 3 3 7 27 8 53 3 61 2 59 25 38 18 -16 20 -16 35 -1 24 24 31 19 9
-6 -10 -13 -19 -24 -20 -25 0 -2 -10 6 -22 17 -16 16 -22 17 -22 6 0 -7 7 -17
16 -20 10 -4 13 -13 9 -28 -6 -23 -6 -23 11 -3 13 16 16 17 11 3 -4 -11 2 -23
16 -33 12 -8 17 -15 13 -15 -5 0 -17 7 -26 15 -15 14 -19 14 -31 -1 -12 -14
-10 -19 10 -35 13 -11 22 -22 19 -24 -2 -3 -14 4 -26 15 -12 12 -22 16 -22 10
0 -5 -5 -10 -12 -10 -9 0 -9 3 0 12 7 7 12 17 12 22 0 6 -11 -2 -25 -17 -14
-15 -31 -27 -38 -27 -6 0 -1 7 11 16 27 19 28 30 2 37 -22 6 -36 -9 -38 -40 0
-15 5 -23 16 -24 21 -2 23 -1 42 4 8 2 12 2 8 0 -13 -7 -9 -24 5 -22 24 3 37
-1 37 -12 0 -8 -4 -8 -14 1 -12 9 -15 8 -13 -9 2 -25 10 -26 32 -4 16 16 16
18 -5 35 -12 10 -19 18 -14 18 4 0 15 -7 24 -15 15 -14 19 -14 31 1 12 14 10
19 -10 35 -13 11 -22 22 -19 24 2 3 14 -4 26 -15 12 -12 22 -16 22 -10 0 5 5
10 12 10 9 0 9 -3 0 -12 -7 -7 -12 -17 -12 -22 0 -6 11 2 25 17 14 15 31 27
38 27 6 0 1 -7 -11 -16 -28 -20 -28 -26 4 -41 20 -9 30 -9 45 0 10 6 19 16 19
21 0 6 6 1 14 -9 12 -16 10 -21 -13 -41 -31 -28 -16 -31 19 -5 21 17 23 22 12
46 -7 15 -8 24 -2 20 5 -3 10 -4 10 -1 0 2 3 13 7 23 6 16 5 16 -10 4 -11 -9
-17 -10 -17 -2 0 11 13 15 38 12 6 -1 12 3 12 9 0 5 -5 10 -12 10 -6 0 -8 3
-5 6 4 4 13 1 22 -6 10 -8 15 -9 15 -1 0 6 6 11 13 11 6 0 -4 -14 -23 -29 -19
-16 -32 -33 -28 -36 4 -4 19 5 35 19 15 14 31 26 36 26 4 0 5 6 0 13 -4 6 5 4
20 -6 15 -9 27 -13 27 -7 0 5 5 10 10 10 6 0 5 -9 -3 -22 -16 -29 -16 -60 1
-66 6 -2 10 2 9 10 -2 7 -2 10 0 6 9 -16 23 -7 20 13 -1 12 5 24 13 26 13 4
13 3 0 -6 -8 -5 -11 -13 -7 -17 7 -7 37 13 37 26 0 19 -41 17 -55 -3 -8 -12
-15 -16 -15 -10 0 6 7 16 15 23 19 16 1 43 -24 35 -28 -8 -41 7 -25 29 10 14
14 16 14 5 0 -12 2 -12 11 1 9 12 10 12 5 -3 -4 -12 -2 -17 6 -14 7 2 12 13
10 25 -4 29 12 35 33 12 21 -24 13 -27 -9 -4 -14 13 -16 13 -16 1 0 -8 7 -18
16 -21 8 -3 12 -10 9 -16 -9 -15 31 -12 44 3 6 8 8 17 5 20 -4 3 -4 14 0 23 6
16 8 15 26 -1 18 -16 20 -16 35 -1 24 24 31 19 9 -6 -10 -13 -19 -24 -20 -25
0 -2 -10 6 -22 17 -12 12 -22 15 -22 9 0 -6 8 -18 18 -25 16 -12 16 -14 -3
-27 -17 -13 -18 -18 -7 -42 7 -14 8 -24 3 -21 -5 3 -12 -1 -15 -10 -9 -24 -7
-28 9 -14 10 9 15 9 15 1 0 -11 -13 -15 -37 -12 -7 1 -13 -3 -13 -9 0 -5 5
-10 12 -10 6 0 8 -3 5 -6 -4 -4 -13 -1 -22 6 -10 8 -15 9 -15 1 0 -6 -6 -11
-12 -11 -7 0 3 14 22 29 19 16 32 33 28 36 -4 4 -19 -5 -35 -19 -15 -14 -31
-26 -36 -26 -4 0 -5 -6 0 -12 4 -7 -5 -5 -20 5 -15 9 -27 13 -27 7 0 -5 -5
-10 -10 -10 -6 0 -5 9 3 23 16 28 16 59 -1 65 -6 2 -10 -2 -9 -10 2 -7 2 -10
0 -5 -9 15 -23 6 -20 -14 1 -12 -5 -24 -13 -26 -13 -4 -13 -3 0 6 8 5 11 13 7
17 -7 7 -37 -13 -37 -26 0 -19 41 -17 55 3 8 12 15 16 15 10 0 -6 -7 -16 -15
-23 -19 -16 -1 -43 24 -35 28 8 41 -8 25 -30 -18 -25 -22 -24 -46 15 -10 18
-22 30 -25 26 -3 -3 2 -17 11 -31 11 -16 15 -34 10 -48 -6 -21 -6 -21 13 -4
22 19 33 22 33 6 0 -5 -4 -8 -9 -5 -5 4 -11 2 -13 -4 -2 -6 -13 -12 -25 -14
-20 -4 -21 -3 -10 21 9 21 8 27 -6 38 -9 6 -14 15 -10 18 3 4 -3 7 -15 7 -26
0 -36 -14 -19 -28 12 -10 18 -12 37 -12 6 0 3 -11 -6 -25 -9 -14 -21 -25 -26
-25 -5 0 -2 7 6 16 21 21 20 29 -5 31 -17 2 -18 -1 -9 -13 9 -10 9 -14 1 -14
-11 0 -15 13 -12 38 2 13 -15 17 -22 5 -2 -5 -2 -2 0 5 1 8 -3 12 -9 10 -15
-5 -17 -34 -5 -63 8 -19 7 -19 -6 -2 -9 10 -17 13 -19 7 -1 -5 -13 -12 -25
-14 -20 -4 -21 -2 -11 20 10 21 8 27 -10 45 -14 13 -22 15 -22 7 0 -7 -5 -5
-11 5 -6 10 -8 21 -5 24 3 4 6 1 6 -6 0 -7 4 -10 9 -6 18 11 52 -38 46 -65 -6
-24 -6 -24 14 -6 21 19 30 42 12 32 -20 -13 -21 27 -1 41 29 20 25 37 -4 18
-22 -15 -27 -15 -55 -1 -38 20 -38 20 -44 -4 -5 -20 14 -54 32 -56 6 -1 16 -2
21 -3 13 -1 -18 -51 -32 -51 -5 0 -2 7 6 16 21 21 20 29 -5 31 -17 2 -18 -1
-9 -13 9 -10 9 -14 1 -14 -11 0 -15 13 -12 38 1 6 -3 12 -9 12 -5 0 -10 -5
-10 -12 0 -6 -3 -8 -6 -5 -4 4 -1 13 6 22 15 18 -1 20 -18 3 -7 -7 -12 -8 -12
-4 0 5 -11 1 -25 -8 -24 -16 -30 -12 -27 15 1 4 -8 15 -18 24 -21 19 -28 7 -8
-13 7 -7 9 -12 5 -12 -4 0 -3 -9 4 -21 10 -20 20 -21 63 -4 14 6 17 5 14 -6
-3 -8 -1 -23 4 -34 8 -16 6 -16 -9 3 -13 15 -25 21 -36 16 -10 -3 -23 -1 -31
5 -7 6 -16 8 -19 4 -10 -9 -9 -25 1 -19 4 2 14 1 21 -3 9 -6 10 -11 2 -15 -6
-4 -11 -2 -11 4 0 6 -5 8 -10 5 -6 -3 -13 1 -16 9 -3 9 -13 16 -21 16 -12 0
-12 -2 1 -16 23 -23 20 -30 -4 -9 -19 17 -21 17 -38 2 -10 -10 -22 -17 -26
-17 -5 0 2 9 15 20 26 21 19 26 -12 10 -13 -8 -25 -7 -39 0 -16 8 -22 8 -26
-4 -3 -8 -12 -17 -20 -20 -11 -4 -10 0 3 19 19 26 38 32 48 15 3 -5 12 -10 18
-10 7 1 2 9 -10 19 -12 10 -19 21 -16 25 4 3 2 6 -4 6 -6 0 -25 -16 -42 -37
-17 -20 -31 -32 -31 -26 0 6 6 16 14 22 18 15 17 53 -2 46 -7 -3 -10 0 -7 6 4
6 14 7 24 4 36 -15 62 -12 76 9 8 11 15 16 15 12 0 -5 -8 -18 -17 -28 -21 -23
-7 -40 37 -43 29 -3 30 -2 15 15 -11 12 -13 20 -6 25 16 9 31 -3 24 -20 -3 -9
1 -15 11 -15 9 0 19 0 23 -1 4 0 9 4 11 10 2 7 -4 9 -15 5 -17 -5 -17 -5 0 6
9 6 15 15 12 21 -9 14 -27 11 -19 -3 4 -7 -2 -4 -14 6 -21 18 -23 18 -42 1
-11 -10 -17 -22 -14 -26 3 -5 0 -9 -5 -9 -17 0 -13 14 9 38 12 12 16 22 10 22
-5 0 -10 5 -10 12 0 9 3 9 12 0 7 -7 16 -12 22 -12 5 0 -7 17 -27 37 -20 20
-37 40 -37 45 0 5 -6 6 -12 1 -7 -4 -5 5 5 21 23 35 16 45 -10 13 -15 -20 -22
-22 -35 -13 -14 10 -14 13 0 25 13 13 13 16 -2 27 -13 9 -14 13 -4 17 19 8 20
8 13 -2z m185 3 c0 -8 -19 -13 -24 -6 -3 5 1 9 9 9 8 0 15 -2 15 -3z m127 -12
c-18 -20 -17 -43 2 -66 18 -22 28 -11 10 11 -11 15 -11 16 1 6 8 -7 19 -13 25
-13 5 1 -1 10 -14 21 -13 11 -22 22 -19 24 3 3 19 -9 37 -27 30 -31 32 -31 49
-14 16 17 16 18 -5 12 -12 -4 -24 -2 -28 4 -4 6 7 8 30 5 32 -4 35 -2 25 11
-8 9 -21 12 -34 8 -20 -6 -19 -5 3 15 13 11 29 21 35 20 6 0 6 -3 -1 -6 -7 -2
-13 -9 -13 -14 0 -6 6 -9 13 -8 24 3 37 -1 37 -12 0 -8 -5 -8 -15 1 -10 8 -15
9 -15 2 0 -6 8 -16 18 -22 15 -10 15 -11 0 -6 -9 3 -27 -4 -40 -14 -13 -11
-18 -19 -11 -20 6 0 15 5 18 10 3 6 11 10 18 10 6 0 2 -7 -10 -15 -12 -9 -29
-12 -40 -8 -16 6 -16 5 -4 -10 7 -9 17 -14 22 -11 5 3 9 0 9 -6 0 -7 -8 -9
-22 -4 -20 6 -21 5 -10 -8 10 -13 10 -17 -4 -22 -20 -8 -51 8 -35 18 6 4 11 2
11 -3 0 -6 4 -11 9 -11 5 0 9 11 9 25 0 27 -17 33 -58 22 -8 -2 -12 -2 -7 0
12 7 8 24 -5 22 -25 -3 -38 1 -38 12 0 8 4 8 14 -1 12 -9 15 -8 13 9 -1 13 -6
20 -14 17 -19 -8 -16 0 12 29 29 28 47 35 22 7z m67 9 c-3 -3 -10 -7 -15 -7
-22 -3 -23 -5 -9 -14 9 -6 10 -10 3 -10 -17 0 -27 21 -14 29 14 9 44 10 35 2z
m101 0 c-3 -5 -1 -12 5 -16 5 -3 10 -2 10 3 0 6 7 13 16 16 11 4 10 -1 -5 -20
-11 -15 -18 -30 -15 -35 3 -5 0 -9 -7 -9 -7 0 -9 8 -6 21 3 13 0 22 -10 26
-12 5 -12 7 -1 14 17 11 20 11 13 0z m99 -3 c-3 -4 -9 -8 -15 -8 -5 0 -9 4 -9
8 0 5 7 9 15 9 8 0 12 -4 9 -9z m86 6 c0 -8 -19 -13 -24 -6 -3 5 1 9 9 9 8 0
15 -2 15 -3z m125 -14 c-18 -20 -18 -21 8 -47 22 -22 28 -24 41 -14 9 7 13 17
10 22 -3 5 0 9 6 9 7 0 9 -7 6 -16 -4 -10 -2 -14 6 -11 7 2 12 10 11 16 -2 6
2 11 7 11 14 0 13 -13 -2 -28 -6 -6 -8 -15 -3 -19 4 -5 10 -2 12 5 3 6 9 12
15 12 7 0 6 -5 -1 -14 -6 -7 -23 -13 -37 -13 -35 0 -38 -7 -19 -42 11 -23 13
-36 5 -50 -16 -31 -11 -38 9 -13 13 15 25 20 38 16 13 -5 10 1 -10 20 -15 15
-25 31 -22 36 3 4 2 10 -2 13 -5 2 -2 2 5 0 17 -4 64 32 54 42 -4 4 5 1 21 -6
15 -7 27 -16 27 -21 0 -13 -52 -59 -59 -52 -3 4 0 9 7 11 20 8 43 34 37 44 -9
13 -25 11 -21 -3 1 -7 1 -10 -1 -5 -8 13 -25 7 -20 -7 4 -9 1 -13 -6 -10 -16
6 -19 -32 -4 -44 8 -6 23 -2 42 12 31 21 35 27 35 48 0 6 7 4 18 -5 27 -25 36
-21 15 7 -10 13 -22 21 -28 18 -5 -3 -2 6 8 22 23 35 16 45 -10 13 -15 -20
-22 -22 -35 -13 -14 10 -14 13 0 25 13 13 13 16 -2 26 -15 11 -15 13 -1 19 9
3 13 2 10 -3 -3 -5 -1 -12 5 -16 5 -3 10 -2 10 3 0 6 7 13 15 16 10 3 6 -7
-11 -29 -14 -19 -22 -35 -16 -35 6 0 17 9 25 20 10 14 20 18 33 13 17 -6 17
-5 5 10 -7 9 -9 17 -3 17 15 0 22 -26 9 -39 -8 -8 -8 -11 1 -11 6 0 16 8 22
18 10 16 10 16 8 -2 -2 -10 2 -21 9 -23 8 -3 10 6 7 26 -6 37 8 46 31 21 21
-24 13 -27 -9 -4 -12 12 -16 12 -16 2 0 -7 9 -19 20 -25 16 -11 21 -10 30 5
11 16 11 16 6 -1 -4 -12 -2 -17 6 -14 7 2 12 10 10 17 -2 7 0 20 3 28 5 13 8
12 25 -3 18 -16 20 -16 35 -1 24 24 31 19 9 -6 -10 -13 -19 -24 -20 -25 0 -2
-10 6 -22 17 -12 12 -22 16 -22 10 0 -14 37 -50 44 -43 3 4 6 1 6 -5 0 -14 -2
-14 -24 -6 -9 3 -13 10 -10 15 8 14 -4 11 -31 -7 -14 -9 -25 -12 -25 -8 0 5
-5 2 -11 -6 -8 -13 -9 -12 -7 4 2 10 -2 21 -9 23 -8 3 -10 -5 -7 -24 7 -37 7
-37 43 -18 25 13 35 13 54 4 12 -7 23 -11 25 -10 1 1 10 -3 20 -8 9 -6 12 -11
6 -11 -6 0 -14 3 -18 7 -14 14 -48 9 -60 -9 -7 -10 -16 -15 -19 -12 -3 4 4 15
16 26 12 11 15 17 7 14 -8 -3 -23 -9 -32 -12 -24 -8 -23 -20 4 -38 12 -9 17
-16 11 -16 -7 0 -24 12 -38 27 -14 15 -25 23 -25 17 0 -5 5 -15 12 -22 9 -9 9
-12 0 -12 -7 0 -12 4 -12 10 0 5 -11 0 -25 -12 -14 -12 -25 -26 -25 -31 0 -6
8 -3 18 6 10 10 23 17 28 17 4 0 -1 -7 -13 -15 -14 -10 -20 -22 -17 -33 4 -11
-1 -9 -14 7 l-19 24 31 27 31 28 -20 23 c-11 12 -14 19 -6 14 9 -5 12 -3 9 6
-6 17 -50 18 -56 1 -2 -7 2 -10 10 -9 7 2 10 2 6 0 -14 -8 -8 -25 7 -20 28 11
28 -16 0 -39 -26 -20 -28 -25 -17 -48 6 -14 9 -33 6 -41 -5 -13 -9 -13 -26 -1
-11 8 -28 12 -37 9 -11 -4 -10 -1 4 10 11 8 16 19 12 23 -4 5 -12 2 -17 -6 -6
-9 -10 -10 -10 -3 0 22 21 25 41 7 20 -18 20 -18 14 8 -4 15 -2 29 4 33 6 3 9
11 6 16 -7 11 -26 12 -24 2 3 -19 -2 -34 -9 -29 -14 9 -52 -23 -46 -39 3 -8
-1 -24 -10 -37 -9 -12 -16 -18 -16 -12 0 5 5 15 11 21 6 6 9 17 6 25 -3 8 -9
3 -17 -14 -13 -28 -30 -38 -30 -18 0 6 5 10 10 10 6 0 10 8 10 17 0 15 -3 15
-22 -4 -18 -18 -19 -24 -9 -37 8 -9 17 -13 22 -10 5 3 9 0 9 -6 0 -7 -7 -9
-16 -6 -11 4 -15 2 -11 -8 4 -10 1 -13 -8 -10 -9 4 -12 -1 -10 -13 2 -10 4
-23 4 -29 2 -18 61 -13 62 5 2 20 1 23 -4 41 -2 8 -2 12 0 8 7 -13 24 -9 22 5
-3 24 1 37 12 37 8 0 8 -5 -1 -15 -14 -16 -10 -18 14 -9 9 3 13 10 10 15 -3 5
7 4 21 -3 24 -11 29 -10 41 7 14 18 14 18 28 0 12 -17 17 -18 41 -7 14 7 23 8
20 2 -3 -5 -4 -10 -1 -10 2 0 13 -3 23 -7 16 -6 16 -5 4 10 -9 11 -10 17 -2
17 11 0 15 -13 12 -37 -1 -7 2 -13 8 -13 5 0 12 6 14 13 4 9 6 9 6 0 2 -21
-20 -25 -39 -8 -18 16 -20 16 -35 1 -24 -24 -31 -19 -9 5 19 21 19 22 -4 15
-14 -5 -29 -3 -37 4 -12 10 -18 10 -30 0 -8 -7 -23 -9 -37 -4 -23 7 -23 6 -4
-14 10 -12 16 -27 13 -34 -4 -8 -6 -7 -6 5 -1 22 -16 22 -40 -2 -11 -11 -22
-17 -25 -14 -3 4 -6 -1 -6 -11 0 -9 4 -14 10 -11 5 3 7 0 4 -8 -6 -17 21 -43
31 -27 3 5 1 10 -4 10 -6 0 -11 5 -11 11 0 6 9 4 21 -5 12 -8 29 -12 38 -9 9
4 13 2 8 -2 -4 -5 -17 -9 -29 -10 -12 -1 -24 -7 -26 -13 -2 -7 2 -10 10 -9 7
2 10 2 6 0 -14 -8 -8 -25 6 -20 8 3 22 -1 33 -8 10 -8 13 -15 7 -15 -6 0 -14
3 -18 7 -28 28 -91 -22 -66 -53 7 -7 16 -11 21 -8 5 3 9 0 9 -5 0 -16 -16 -13
-34 5 -11 10 -16 11 -16 3 0 -6 7 -17 16 -23 16 -12 9 -51 -7 -40 -5 3 -9 -2
-9 -11 0 -9 4 -13 10 -10 6 3 7 -1 4 -9 -4 -11 4 -22 24 -33 l30 -17 -31 -38
c-26 -32 -28 -40 -16 -54 12 -15 15 -14 30 5 10 12 20 18 22 14 3 -5 -6 -16
-18 -25 -22 -16 -25 -16 -39 -2 -11 10 -16 11 -16 3 0 -6 7 -17 16 -23 16 -12
9 -51 -7 -40 -5 3 -9 -2 -9 -11 0 -9 4 -14 9 -11 12 8 5 -42 -8 -58 -8 -9 -7
-20 2 -39 15 -33 21 -33 41 -5 9 12 16 17 16 11 0 -7 -12 -24 -27 -38 -15 -14
-23 -25 -17 -25 5 0 15 5 22 12 9 9 12 9 12 0 0 -7 -5 -12 -11 -12 -6 0 -3 -7
5 -16 18 -18 21 -34 5 -34 -5 0 -8 4 -5 9 3 5 -1 15 -10 22 -13 10 -19 8 -41
-14 -22 -22 -24 -28 -13 -42 10 -12 16 -13 26 -4 8 6 14 16 14 21 0 6 -7 5
-15 -2 -19 -16 -20 -3 -1 16 16 16 30 19 21 5 -3 -5 0 -13 6 -16 7 -5 3 -12
-9 -21 -19 -13 -20 -54 -2 -54 13 0 33 30 26 37 -4 4 -12 1 -17 -7 -9 -13 -10
-13 -6 0 2 8 14 14 26 13 20 -3 29 11 14 20 -5 2 -2 2 6 0 8 -2 11 2 7 12 -8
22 2 18 15 -6 8 -15 8 -19 0 -15 -6 4 -11 3 -11 -1 0 -5 -12 -21 -26 -36 -14
-16 -23 -31 -19 -35 3 -4 19 8 33 26 l27 32 14 -22 c10 -18 10 -20 0 -10 -25
23 -32 12 -8 -14 17 -18 19 -23 6 -18 -9 3 -17 10 -17 15 0 5 -4 9 -9 9 -13 0
-10 -49 3 -57 6 -4 25 -8 41 -8 21 0 29 -4 28 -15 -3 -16 74 -97 88 -93 4 1 5
-7 2 -17 -3 -12 0 -20 6 -20 7 0 9 6 5 13 -4 7 -3 9 2 4 5 -5 9 -12 9 -15 0
-4 3 -12 7 -17 4 -6 2 -17 -3 -25 -8 -12 -9 -11 -7 4 2 10 -2 21 -9 23 -7 2
-10 -3 -8 -14 2 -10 4 -24 4 -30 1 -7 11 -12 22 -10 12 1 24 -5 26 -13 4 -13
3 -13 -6 0 -5 8 -13 11 -17 7 -7 -7 14 -37 26 -37 5 0 11 8 13 18 4 15 5 15 6
0 2 -30 -20 -31 -49 -3 l-28 27 3 -33 c2 -31 30 -63 45 -54 10 6 22 -24 14
-37 -3 -5 -12 -7 -20 -4 -8 3 -14 1 -14 -4 0 -18 19 -19 40 -2 20 16 21 21 10
39 -11 17 -10 24 3 44 20 27 23 18 5 -11 -11 -16 -9 -23 10 -40 13 -12 22 -16
22 -8 0 6 11 -2 23 -20 13 -17 27 -29 30 -26 8 8 -43 75 -52 70 -4 -3 -12 -2
-18 2 -8 5 -7 13 4 27 15 19 15 19 8 -4 -5 -15 -3 -21 3 -17 6 3 24 -12 41
-33 20 -25 28 -42 21 -46 -6 -4 -9 -14 -6 -22 3 -8 1 -11 -4 -8 -6 3 -10 2
-10 -4 0 -5 -9 -9 -20 -8 -11 1 -20 5 -20 10 0 4 7 7 16 5 10 -2 19 3 21 10 3
8 -2 10 -14 6 -15 -5 -15 -4 -3 5 8 5 11 13 7 17 -3 4 -14 1 -22 -6 -13 -10
-18 -11 -28 -1 -9 10 -8 12 7 9 10 -1 21 2 23 7 5 16 -34 16 -47 0 -8 -10 -7
-16 7 -27 21 -15 29 -48 13 -48 -6 0 -9 4 -6 8 8 13 -24 53 -35 46 -5 -3 -17
0 -25 7 -17 14 -21 11 -26 -15 -1 -10 3 -21 10 -23 8 -3 10 1 6 14 -5 13 -2
12 10 -4 10 -13 22 -23 28 -23 7 0 6 6 -2 15 -8 9 -8 15 -2 15 17 0 20 -24 5
-42 -13 -15 -11 -16 19 -13 18 2 40 5 48 8 8 2 12 2 8 0 -17 -9 -7 -20 17 -20
14 0 25 3 25 8 0 5 -5 9 -11 9 -5 0 -7 5 -3 11 10 16 26 -15 18 -35 -5 -12
-10 -14 -19 -6 -6 5 -15 7 -18 3 -4 -3 -13 0 -22 7 -17 14 -21 0 -4 -17 6 -6
18 -9 27 -6 10 4 13 2 8 -5 -8 -13 -46 -12 -63 0 -7 6 -21 3 -37 -7 -14 -10
-26 -13 -26 -9 0 5 13 16 28 25 27 15 30 15 39 0 6 -9 13 -14 16 -11 3 3 -1
14 -9 25 -14 19 -16 19 -43 4 -26 -15 -29 -15 -40 2 -7 12 -7 19 -1 19 5 0 10
-4 10 -10 0 -18 16 -11 17 8 2 21 -31 27 -46 8 -8 -10 -7 -17 4 -26 8 -7 15
-17 15 -23 0 -6 -7 -2 -15 10 -14 20 -55 22 -55 3 0 -13 30 -33 37 -26 4 4 1
12 -7 17 -13 9 -13 10 0 6 9 -2 14 -14 12 -27 -2 -19 0 -21 13 -10 9 7 15 8
15 2 0 -17 -28 -22 -40 -7 -13 15 -30 11 -30 -6 0 -6 4 -8 9 -5 5 3 14 -1 21
-9 9 -10 9 -15 1 -15 -6 0 -11 3 -11 8 0 4 -18 7 -40 8 -35 0 -38 -2 -26 -15
14 -17 11 -41 -6 -41 -6 0 -5 7 3 16 12 15 11 16 -9 10 -14 -5 -22 -3 -22 4 0
6 5 8 10 5 11 -7 8 30 -3 41 -4 4 -7 11 -7 16 0 4 9 -1 20 -12 11 -11 26 -20
33 -20 14 0 39 35 30 44 -9 8 -23 8 -22 -1 1 -5 1 -14 0 -21 -2 -18 -41 8 -41
27 0 8 -3 11 -7 8 -3 -4 -12 1 -19 11 -11 15 -16 15 -34 4 -12 -7 -24 -12 -26
-9 -2 2 7 9 19 16 20 11 29 10 56 -7 18 -11 32 -23 31 -28 -1 -5 4 -10 12 -13
7 -2 10 0 5 4 -4 5 1 17 10 28 17 19 17 19 -4 13 -43 -14 -100 45 -65 67 6 4
12 12 12 18 0 5 -8 4 -19 -2 -14 -10 -23 -9 -42 4 -13 10 -19 17 -13 17 5 0
15 -5 21 -11 16 -16 47 -3 39 17 -3 8 -2 13 3 10 5 -3 12 1 15 10 8 20 7 21
-18 26 -22 4 -48 -32 -28 -39 6 -3 12 -9 12 -14 0 -5 -9 -4 -19 3 -11 7 -18
15 -15 19 2 4 0 10 -6 14 -5 3 -10 -1 -10 -9 0 -9 -5 -16 -10 -16 -7 0 -7 6
-1 19 10 18 6 31 -10 31 -5 0 -6 -8 -3 -17 5 -15 4 -15 -5 -3 -5 8 -13 11 -17
7 -4 -3 -2 -12 4 -19 7 -9 6 -19 -4 -32 -8 -11 -14 -15 -14 -9 0 7 5 15 10 18
6 4 8 11 5 16 -7 11 -26 12 -24 2 5 -31 -14 -46 -24 -19 -4 9 7 23 28 37 18
13 31 28 27 34 -3 5 6 2 21 -8 15 -9 27 -13 27 -7 0 5 5 10 11 10 8 0 8 -5 -1
-15 -7 -8 -8 -15 -2 -15 5 0 15 6 21 14 14 16 -8 39 -30 31 -8 -3 -21 0 -29 5
-13 9 -13 11 0 20 8 5 21 8 29 5 7 -3 20 0 28 6 11 10 11 15 -3 30 -14 16 -15
23 -4 49 12 28 10 32 -18 62 -26 26 -34 29 -47 18 -8 -7 -12 -16 -9 -21 3 -5
0 -9 -5 -9 -16 0 -13 16 5 34 10 11 11 16 3 16 -6 0 -18 -8 -25 -18 -12 -16
-14 -16 -28 3 -14 20 -15 20 -50 1 -19 -10 -33 -23 -30 -27 3 -5 -2 -12 -10
-15 -9 -3 -16 -13 -16 -20 0 -9 18 3 41 26 42 41 49 43 53 18 4 -26 18 -39 39
-33 12 2 16 2 10 -1 -7 -3 -13 -10 -13 -15 0 -6 6 -9 13 -8 24 3 37 -1 37 -12
0 -8 -4 -8 -13 0 -11 8 -14 5 -14 -19 0 -28 10 -39 20 -22 2 4 2 1 0 -6 -1 -8
2 -12 9 -10 19 7 15 69 -5 83 -12 8 -15 15 -8 20 6 3 9 11 6 16 -11 17 4 9 28
-15 21 -21 22 -25 9 -44 -13 -19 -12 -25 2 -47 9 -14 12 -25 6 -25 -5 0 -10 5
-10 10 0 6 -12 3 -27 -7 -16 -9 -25 -13 -21 -9 12 14 -38 47 -59 39 -17 -7
-17 -6 0 12 16 15 20 16 27 4 5 -7 12 -10 16 -6 13 12 -18 38 -40 32 -12 -3
-15 -2 -8 1 20 10 13 22 -13 22 -14 0 -25 -4 -25 -9 0 -5 5 -9 12 -9 6 0 3 -9
-7 -20 -10 -11 -13 -20 -7 -20 6 0 14 5 17 10 3 6 11 10 18 10 6 0 2 -6 -9
-14 -23 -17 -15 -28 20 -28 14 -1 31 -7 37 -14 7 -9 8 -14 1 -14 -6 0 -12 6
-15 13 -2 6 -8 9 -12 5 -4 -4 -2 -14 5 -23 7 -8 9 -15 4 -15 -5 0 -1 -7 9 -14
16 -12 15 -15 -18 -40 -30 -24 -34 -30 -24 -48 8 -15 8 -19 0 -14 -6 4 -11 0
-11 -9 0 -9 4 -14 9 -11 5 3 12 -1 15 -10 3 -8 10 -12 16 -9 5 3 10 1 10 -4 0
-14 -17 -14 -25 -1 -3 6 -11 10 -17 10 -6 0 -6 -6 2 -15 7 -9 10 -18 7 -22 -4
-3 -2 -12 3 -18 8 -9 6 -14 -6 -19 -20 -8 -51 8 -35 18 6 4 11 2 11 -3 0 -6 4
-11 9 -11 5 0 9 11 9 25 0 24 -12 34 -21 18 -2 -5 -2 -1 1 7 8 25 4 53 -10 63
-9 6 -8 7 6 3 13 -5 17 -2 13 9 -4 8 -2 17 3 20 6 4 10 11 10 17 0 7 -6 6 -15
-2 -10 -9 -15 -9 -15 -1 0 11 13 15 38 12 6 -1 12 3 12 9 0 5 -5 10 -12 10 -6
0 -8 3 -5 6 4 4 13 1 22 -6 15 -12 22 0 8 14 -5 4 -8 13 -8 18 0 6 -6 13 -13
16 -7 2 -10 -2 -6 -12 3 -9 1 -16 -6 -16 -6 0 -9 4 -6 9 3 5 -1 14 -9 21 -13
11 -21 8 -47 -19 -27 -27 -29 -35 -20 -55 8 -18 7 -28 -3 -43 -21 -27 -17 -42
4 -16 10 12 21 19 25 16 3 -3 -3 -12 -13 -20 -12 -8 -17 -20 -14 -33 6 -23 14
-25 31 -8 17 17 15 33 -3 18 -9 -7 -15 -8 -15 -2 0 12 26 23 34 15 11 -11 6
-22 -21 -48 -15 -14 -23 -25 -17 -25 5 0 15 5 22 12 9 9 12 9 12 0 0 -7 -5
-12 -11 -12 -5 0 -7 -5 -3 -12 5 -7 3 -8 -5 -4 -7 5 -21 0 -32 -10 -23 -20
-26 -12 -3 10 10 11 11 16 3 16 -6 0 -18 -8 -25 -17 -12 -16 -13 -16 -8 -1 4
12 1 16 -13 13 -10 -2 -24 -4 -32 -4 -7 -1 -11 -7 -8 -15 4 -10 1 -13 -7 -10
-9 3 -13 -3 -12 -18 1 -31 26 -34 56 -6 18 17 22 18 17 5 -4 -11 1 -22 16 -32
12 -8 16 -15 10 -15 -7 0 -15 5 -19 12 -5 7 -11 5 -21 -7 -7 -11 -13 -14 -13
-9 0 6 5 15 12 22 7 7 8 12 2 12 -5 0 -16 -6 -22 -12 -10 -10 -17 -10 -31 -1
-18 12 -31 8 -31 -9 0 -4 3 -7 8 -7 17 3 35 -2 29 -7 -4 -4 1 -19 10 -35 16
-27 16 -29 -2 -49 -10 -11 -13 -20 -7 -20 6 0 17 9 25 20 8 11 17 17 20 13 4
-3 7 -1 7 5 0 7 -6 12 -12 13 -10 0 -10 2 0 6 18 7 15 21 -5 19 -10 0 -18 6
-19 14 0 8 1 10 3 3 2 -6 13 -11 24 -10 11 1 17 7 15 14 -3 7 1 10 9 6 13 -4
13 -8 1 -25 -8 -11 -12 -26 -10 -33 3 -6 -6 -19 -20 -29 -25 -16 -26 -40 -2
-59 7 -6 4 -7 -7 -3 -14 4 -16 1 -11 -18 3 -14 1 -27 -7 -32 -9 -5 -10 -2 -6
10 4 10 2 27 -4 38 -8 15 -8 19 0 14 6 -4 11 0 11 9 0 9 -4 14 -9 11 -18 -11
-21 26 -4 39 16 12 16 15 -2 48 -10 20 -21 35 -24 35 -20 -2 -31 3 -26 12 3 6
-1 10 -10 10 -9 0 -14 -4 -11 -9 3 -4 -6 -7 -20 -5 -18 2 -24 -2 -20 -11 3 -9
0 -12 -8 -9 -8 3 -16 -3 -19 -15 -5 -20 9 -41 27 -41 6 0 5 5 -2 12 -7 7 -12
17 -12 22 0 6 4 5 9 -3 7 -11 10 -9 16 8 3 11 11 21 16 21 5 0 3 -10 -6 -23
-8 -13 -12 -27 -8 -30 3 -4 -2 -14 -13 -23 -12 -10 -14 -14 -4 -11 8 2 22 -6
31 -17 17 -21 15 -46 -3 -46 -6 0 -5 6 2 15 15 18 -1 20 -18 3 -17 -17 -15
-25 8 -31 13 -3 25 2 35 16 8 12 15 17 15 13 0 -5 -7 -18 -17 -28 -9 -11 -11
-18 -5 -18 7 0 12 -5 12 -10 0 -6 -11 -3 -24 5 -19 13 -29 14 -45 5 -24 -12
-26 -23 -10 -52 8 -15 8 -19 0 -14 -6 4 -11 5 -11 2 0 -2 -3 -13 -7 -23 -6
-15 -4 -16 9 -5 13 10 17 10 22 -3 3 -8 3 -22 -1 -31 -5 -14 -3 -15 15 -5 12
7 22 10 22 7 0 -2 3 -11 6 -19 3 -10 -3 -20 -15 -27 -14 -7 -21 -7 -21 0 0 5
7 10 15 10 8 0 15 5 15 10 0 15 -26 12 -40 -5 -10 -12 -10 -18 0 -30 10 -12
15 -12 35 1 18 12 28 13 44 5 35 -19 36 -12 3 20 -36 35 -38 45 -17 73 8 10
12 22 10 26 -7 12 27 22 38 11 5 -5 5 -17 -2 -29 -9 -17 -7 -23 11 -36 12 -9
18 -16 14 -16 -5 0 -18 7 -28 17 -10 9 -18 11 -18 5 0 -6 10 -18 22 -26 12 -9
19 -18 16 -21 -3 -4 -17 5 -30 18 -24 24 -24 25 -7 48 20 26 24 39 11 39 -4 0
-16 -16 -26 -35 l-19 -34 31 -32 c19 -19 35 -28 43 -24 8 5 10 4 5 -3 -4 -7 0
-12 10 -12 10 0 14 3 10 7 -3 4 4 13 16 20 13 7 17 12 9 13 -8 0 -4 7 10 19
23 19 49 18 49 -1 0 -6 -8 -4 -17 3 -15 12 -16 12 -10 -3 4 -11 2 -15 -6 -12
-7 2 -13 -4 -14 -16 -2 -29 19 -34 54 -13 30 18 33 22 33 44 0 5 5 7 10 4 6
-3 10 1 10 10 0 9 -5 13 -11 9 -8 -5 -8 -1 0 14 6 11 8 28 4 38 -4 12 -3 15 6
10 8 -5 10 -18 7 -32 -5 -19 -3 -22 11 -18 11 4 14 3 6 -3 -16 -11 -20 -45 -7
-50 7 -2 11 2 10 9 0 7 2 13 5 13 15 0 39 30 35 42 -3 8 -1 11 4 8 6 -3 10 -1
10 4 0 6 5 11 11 11 8 0 7 -5 -1 -15 -7 -9 -10 -18 -8 -21 6 -5 48 49 48 61 0
4 -7 2 -15 -5 -9 -7 -18 -10 -22 -6 -3 3 -1 6 5 6 7 0 12 4 12 9 0 5 -11 9
-25 9 -14 0 -25 -4 -25 -9 0 -5 5 -9 11 -9 5 0 7 -5 3 -11 -10 -16 -26 15 -18
35 5 12 10 14 19 6 6 -5 15 -7 18 -4 4 4 18 -1 32 -10 25 -16 25 -16 5 -36
-24 -24 -28 -49 -5 -30 10 9 15 9 15 1 0 -11 -13 -15 -37 -12 -7 1 -13 -4 -14
-11 0 -7 -2 -21 -4 -30 -2 -10 1 -18 6 -18 5 0 9 -5 9 -11 0 -8 -5 -7 -16 2
-13 11 -15 11 -14 -2 4 -26 0 -39 -11 -39 -8 0 -8 4 1 14 9 12 8 15 -9 13 -25
-2 -26 -10 -4 -32 16 -16 18 -16 35 5 21 25 24 14 4 -13 -8 -11 -21 -15 -32
-11 -18 5 -18 5 -2 -9 10 -8 15 -17 11 -20 -3 -4 1 -7 11 -7 9 0 14 4 11 10
-3 5 0 7 8 4 9 -3 22 4 31 17 8 13 18 20 21 18 2 -3 -4 -15 -15 -27 -12 -12
-16 -22 -11 -22 5 0 9 -9 8 -20 -1 -11 -5 -20 -10 -20 -4 0 -7 7 -5 16 2 10
-3 19 -11 22 -8 3 -11 0 -7 -7 4 -6 0 -25 -8 -43 -21 -41 -20 -48 4 -19 11 13
20 20 20 17 0 -4 9 -2 20 4 16 9 18 8 14 -5 -3 -8 -9 -13 -13 -10 -17 10 -49
-25 -45 -47 5 -20 3 -19 -11 4 -14 26 -14 31 0 59 19 35 16 42 -19 41 -14 0
-31 7 -37 14 -7 9 -8 14 -1 14 6 0 12 -6 15 -12 2 -7 8 -10 12 -6 4 4 2 14 -5
23 -7 8 -9 15 -5 15 4 0 0 11 -9 25 -16 24 -12 30 15 27 4 -1 15 8 24 18 10
11 13 20 7 20 -6 0 -14 -5 -17 -10 -4 -6 -10 -8 -14 -5 -5 2 -17 -2 -27 -10
-16 -12 -17 -17 -6 -34 16 -27 15 -44 -2 -38 -7 3 -23 -1 -34 -9 -17 -12 -21
-12 -25 1 -4 10 -1 12 10 8 10 -4 14 -2 9 5 -10 16 13 25 29 12 18 -15 20 1 3
18 -10 10 -10 17 -1 31 12 18 8 31 -9 31 -4 0 -7 -3 -7 -7 3 -18 -2 -36 -7
-30 -4 4 -19 -1 -35 -10 -27 -16 -29 -16 -49 2 -11 10 -20 13 -20 7 0 -6 9
-17 19 -24 13 -9 17 -19 11 -27 -6 -11 -12 -11 -31 3 -13 9 -19 16 -13 16 5 0
15 -5 22 -12 7 -7 12 -8 12 -2 0 18 -21 32 -41 27 -22 -6 -24 -14 -7 -31 9 -9
9 -15 -1 -24 -11 -11 -13 -10 -8 4 3 10 2 20 -4 24 -6 3 -8 12 -5 20 4 11 0
13 -18 8 -13 -3 -27 -1 -30 5 -4 6 -13 11 -19 11 -7 -1 -3 -8 8 -18 22 -19 32
-52 15 -52 -6 0 -9 4 -6 8 3 5 -2 18 -10 30 -12 17 -19 20 -34 12 -14 -7 -23
-6 -34 6 -12 12 -16 12 -16 2 0 -8 13 -21 29 -31 36 -21 47 -22 31 -2 -9 10
-9 15 -1 15 11 0 15 -13 12 -36 -1 -7 8 -14 19 -17 22 -6 40 18 33 43 -4 13
-3 13 5 1 6 -8 8 -19 6 -26 -3 -6 2 -17 10 -24 11 -10 17 -8 28 8 8 12 18 18
21 14 4 -3 -2 -12 -12 -20 -12 -8 -17 -20 -14 -33 6 -23 14 -25 31 -8 17 17
15 33 -3 18 -9 -7 -15 -8 -15 -2 0 14 28 23 35 12 4 -6 3 -15 -1 -21 -4 -7 -1
-10 7 -7 16 6 13 39 -4 51 -8 6 -5 7 7 3 13 -4 17 -2 13 7 -3 8 -1 20 5 28 8
12 9 12 5 -1 -2 -8 0 -23 5 -34 7 -13 7 -16 -1 -12 -6 4 -11 0 -11 -9 0 -9 5
-13 10 -10 6 3 10 1 10 -4 0 -20 4 -26 35 -47 19 -14 34 -18 42 -12 15 12 12
50 -4 44 -7 -3 -10 1 -6 10 3 7 1 14 -5 14 -6 0 -13 -6 -15 -12 -4 -10 -6 -10
-6 -1 -2 21 20 26 38 9 10 -9 24 -15 32 -13 8 2 11 2 6 0 -4 -3 -5 -9 -2 -13
3 -5 -7 -20 -22 -35 -28 -25 -28 -25 -4 -23 16 2 26 -4 32 -19 5 -14 5 -23 -1
-23 -6 0 -10 9 -10 20 0 11 -5 20 -11 20 -6 0 -9 -6 -6 -14 4 -9 -2 -13 -16
-12 -14 1 -22 8 -22 19 0 21 -33 49 -46 41 -8 -5 -13 10 -10 29 2 10 -17 9
-24 -2 -3 -5 0 -13 6 -16 6 -4 8 -18 4 -33 -6 -26 -6 -26 14 -8 20 18 42 15
40 -7 0 -9 -2 -9 -6 1 -2 6 -9 12 -15 12 -6 0 -8 -7 -5 -14 4 -10 1 -13 -7
-10 -16 6 -17 -26 -2 -45 8 -11 8 -13 -1 -8 -6 4 -14 2 -16 -3 -3 -6 -4 -5 -3
2 6 23 -13 48 -31 41 -12 -5 -10 0 5 15 12 12 22 29 22 37 0 16 -34 38 -44 28
-8 -9 -8 -23 2 -22 26 4 32 -1 20 -21 -13 -21 -38 -27 -38 -10 0 6 5 9 11 8 6
-2 14 4 17 12 2 8 1 12 -3 7 -5 -4 -16 0 -26 9 -16 14 -17 13 -14 -17 1 -17 8
-34 14 -39 9 -5 8 -9 -4 -14 -12 -4 -15 -13 -12 -28 5 -16 3 -18 -6 -9 -9 9
-9 16 0 30 12 18 8 31 -9 31 -4 0 -7 -3 -7 -8 3 -18 -2 -35 -8 -29 -3 4 -15 0
-25 -10 -10 -9 -18 -12 -18 -6 0 5 11 16 25 23 13 7 22 17 19 21 -2 4 4 12 13
18 17 9 17 11 -1 45 -10 20 -23 33 -27 30 -5 -3 -12 2 -15 10 -3 9 -13 16 -20
16 -9 0 3 -18 26 -41 31 -32 38 -44 28 -50 -18 -12 -28 -11 -28 2 0 5 5 7 10
4 23 -14 8 16 -22 44 -39 37 -42 37 -62 9 -9 -12 -18 -19 -21 -17 -2 3 4 15
15 27 12 12 16 22 10 22 -5 0 -10 5 -10 11 0 8 5 7 15 -1 9 -7 18 -10 21 -8 5
6 -49 48 -61 48 -4 0 -2 -7 5 -15 7 -9 10 -18 6 -22 -3 -3 -6 -1 -6 5 0 7 -5
12 -10 12 -6 0 -10 -6 -9 -12 3 -25 -1 -38 -12 -38 -8 0 -8 4 1 14 9 12 8 15
-9 13 -25 -2 -26 -10 -4 -32 16 -16 18 -16 35 5 10 12 18 18 18 12 0 -5 -7
-15 -15 -22 -12 -10 -13 -16 -4 -27 7 -8 18 -12 26 -9 8 3 11 1 8 -4 -3 -6 -1
-10 4 -10 6 0 11 -5 11 -12 0 -9 -3 -9 -12 0 -7 7 -17 12 -23 12 -5 -1 1 -10
15 -22 l25 -21 -25 8 c-20 6 -23 5 -12 -6 6 -7 12 -18 12 -23 0 -6 -7 -3 -15
7 -7 11 -11 25 -8 33 3 8 -1 14 -11 14 -9 0 -19 0 -23 1 -4 0 -9 -4 -11 -10
-2 -7 4 -9 15 -5 15 5 15 4 3 -5 -12 -8 -19 -5 -34 15 -15 21 -21 23 -35 12
-13 -10 -14 -10 -5 1 20 22 5 48 -27 48 -28 0 -28 -1 -12 -19 13 -14 18 -16
25 -6 5 9 8 10 8 1 0 -19 -17 -24 -30 -8 -7 8 -16 12 -21 9 -5 -3 -8 0 -7 8 2
7 -3 12 -9 11 -10 -2 -10 3 -1 23 10 22 9 27 -5 36 -10 5 -15 13 -12 19 4 5
-3 9 -14 9 -28 0 -26 -12 3 -30 20 -12 22 -18 13 -31 -11 -14 -15 -13 -37 9
l-25 25 28 -17 c15 -9 27 -12 27 -7 0 6 -9 15 -20 21 -16 8 -19 17 -14 33 6
19 5 20 -9 8 -9 -7 -15 -16 -13 -20 3 -4 0 -13 -6 -21 -8 -12 -9 -11 -4 4 5
13 2 17 -9 12 -8 -3 -14 0 -12 6 1 6 -4 13 -12 16 -9 3 -11 0 -6 -8 5 -8 4
-11 -3 -6 -6 3 -9 16 -7 27 3 16 0 19 -15 14 -10 -3 -21 -1 -25 4 -3 6 0 8 8
5 17 -6 43 21 27 31 -5 3 -10 1 -10 -4 0 -6 -5 -11 -12 -11 -9 0 -9 3 0 12 7
7 12 17 12 22 -1 6 -12 -2 -26 -19 -17 -20 -22 -23 -15 -8 14 28 14 36 -1 26
-23 -14 -37 -12 -30 5 4 10 7 12 10 4 2 -7 8 -10 12 -7 5 3 6 13 3 23 -4 13
-2 13 10 -3 8 -11 18 -17 22 -14 10 11 5 74 -8 96 -9 15 20 25 40 14 11 -6 12
-10 4 -15 -6 -4 -11 -2 -11 3 0 6 -4 11 -9 11 -5 0 -8 -11 -8 -25 0 -14 3 -25
8 -25 5 0 9 5 9 12 0 6 3 8 6 5 4 -4 1 -13 -6 -22 -7 -8 -8 -15 -2 -15 13 0
33 25 26 33 -3 3 -1 14 6 24 9 14 10 14 6 1 -2 -9 1 -24 8 -34 11 -15 9 -21
-18 -45 l-31 -28 33 -32 c18 -17 30 -34 27 -37 -2 -3 -14 6 -25 19 -19 22 -20
22 -18 4 4 -30 35 -50 54 -34 13 10 13 14 -1 29 -8 9 -15 21 -15 26 0 4 7 -1
15 -13 14 -20 55 -22 55 -3 0 13 -30 33 -37 26 -4 -4 -1 -12 7 -17 13 -9 13
-10 0 -6 -8 2 -14 14 -13 26 3 20 -11 29 -20 14 -2 -5 -2 -2 0 5 1 8 -3 12 -9
9 -7 -2 -11 -13 -10 -23 3 -15 1 -16 -8 -7 -14 13 -7 29 22 44 15 8 19 8 14 0
-4 -6 -3 -11 1 -11 5 0 21 -12 36 -26 16 -14 31 -23 35 -19 4 3 -9 20 -28 36
-19 15 -29 29 -22 29 6 0 12 -5 12 -11 0 -8 5 -7 15 1 9 7 18 10 22 6 3 -3 1
-6 -5 -6 -7 0 -12 -5 -12 -10 0 -6 6 -10 13 -9 24 3 37 -1 37 -12 0 -8 -5 -8
-15 1 -16 14 -18 10 -9 -14 3 -9 10 -13 15 -10 5 3 4 -7 -3 -21 -10 -23 -10
-29 5 -40 12 -9 14 -14 6 -17 -6 -2 -13 -19 -14 -36 -3 -32 -2 -32 16 -16 18
16 20 16 40 -2 20 -18 20 -18 14 6 -6 27 28 76 46 65 5 -4 9 -1 9 6 0 7 3 10
6 6 3 -3 1 -14 -5 -24 -6 -10 -11 -12 -11 -5 0 8 -8 5 -22 -8 -22 -20 -22 -21
-5 -53 10 -19 27 -33 38 -34 16 -2 15 3 -12 29 -22 23 -27 33 -18 39 7 4 16 6
20 3 13 -8 37 36 32 57 -6 23 -6 23 -44 3 -28 -14 -33 -14 -55 1 -29 19 -32 2
-3 -19 14 -9 18 -19 12 -28 -9 -15 -43 -20 -43 -7 0 5 10 9 23 9 22 1 22 1 -4
24 -21 18 -24 26 -15 38 10 13 13 12 30 -4 11 -10 24 -18 30 -18 6 1 1 9 -11
19 -17 14 -19 21 -10 31 10 10 7 11 -10 5 -15 -4 -23 -2 -23 5 0 6 4 9 9 6 5
-3 15 2 22 11 12 15 12 16 -4 10 -11 -4 -28 -1 -40 8 -12 8 -16 15 -10 15 7 0
15 -4 18 -10 3 -5 12 -10 18 -10 7 1 2 9 -10 19 -16 13 -19 21 -11 29 17 17
-10 46 -28 31 -8 -6 -14 -16 -14 -21 0 -6 7 -5 15 2 10 9 15 9 15 1 0 -6 -5
-11 -11 -11 -5 0 -7 -4 -4 -10 3 -5 2 -10 -2 -10 -5 0 -13 8 -20 18 -9 15 -7
21 7 30 18 11 18 52 0 52 -13 0 -33 -30 -26 -37 4 -4 12 -1 17 7 9 13 10 13 6
0 -2 -8 -14 -14 -26 -13 -20 3 -29 -11 -13 -20 4 -2 1 -2 -6 0 -8 1 -12 -3 -9
-9 2 -7 11 -12 20 -10 8 1 18 -2 21 -6 3 -5 -5 -9 -18 -9 -16 0 -28 8 -35 24
-6 13 -8 22 -3 19 4 -2 17 9 27 25 11 16 23 29 28 29 4 0 7 5 7 11 0 5 -5 7
-10 4 -5 -3 -10 -1 -10 4 0 6 5 11 11 11 5 0 7 5 4 10 -4 6 5 5 20 -2 21 -9
27 -9 38 6 8 11 19 15 30 10 31 -12 0 -34 -43 -30 l-38 4 30 -44 c16 -24 33
-44 38 -44 5 0 14 -9 20 -20 7 -14 7 -20 0 -20 -5 0 -10 8 -10 17 0 13 -3 14
-12 5 -10 -9 -8 -16 5 -29 16 -16 18 -16 33 -1 14 14 13 18 -18 49 -36 36 -54
69 -38 69 6 0 10 -9 10 -21 0 -11 5 -17 10 -14 6 4 8 10 5 15 -3 5 6 17 20 28
13 11 21 23 17 27 -4 4 5 1 21 -6 30 -14 31 -17 16 -39 -8 -13 -9 -12 -7 4 2
10 -3 21 -10 23 -6 3 -10 -1 -9 -9 2 -7 2 -10 0 -5 -8 13 -25 7 -20 -7 4 -10
1 -13 -7 -10 -15 6 -18 -25 -3 -44 10 -13 37 1 37 20 0 6 -7 5 -15 -2 -9 -7
-15 -8 -15 -2 0 14 28 23 35 12 3 -5 12 -7 20 -3 8 3 15 0 15 -7 0 -6 -4 -9
-8 -6 -5 3 -18 -2 -30 -10 -17 -12 -20 -19 -12 -33 5 -10 6 -21 3 -25 -3 -3
-1 -6 5 -6 14 0 36 39 27 48 -3 4 -10 0 -15 -8 -6 -9 -10 -10 -10 -3 0 21 21
26 39 9 16 -14 17 -13 17 24 -1 27 -5 39 -13 36 -7 -3 -10 1 -6 10 5 13 8 13
23 -1 25 -23 33 -18 13 9 -10 13 -22 21 -28 18 -5 -3 -2 6 8 21 9 15 13 27 7
27 -5 0 -10 5 -10 11 0 8 5 8 15 -1 8 -7 15 -8 15 -2 0 5 -6 15 -14 21 -10 9
-16 8 -26 -3 -6 -9 -9 -20 -5 -25 3 -6 2 -17 -2 -25 -7 -13 -11 -13 -27 0 -14
10 -16 14 -5 14 12 0 12 2 -1 11 -12 9 -12 10 3 5 11 -4 17 -2 15 5 -2 6 -7
10 -11 10 -4 -1 -14 -1 -23 -1 -11 0 -14 -6 -9 -20 4 -12 2 -20 -5 -20 -6 0
-8 5 -4 12 5 8 2 9 -11 4 -18 -7 -18 -6 -1 12 16 19 16 20 -12 17 -16 -1 -34
-5 -40 -9 -15 -9 -16 -36 -2 -36 6 0 10 7 10 15 0 8 4 15 10 15 6 0 5 -9 -1
-24 -10 -21 -15 -23 -30 -13 -22 13 -20 26 6 49 11 9 15 17 10 18 -6 0 -16 -5
-23 -12 -9 -9 -17 -9 -36 2 -14 7 -23 17 -20 22 3 5 11 2 18 -8 10 -13 17 -14
34 -5 16 8 28 9 41 1 31 -16 38 -11 13 9 -15 13 -20 25 -16 38 5 13 -1 10 -20
-9 -31 -32 -41 -35 -50 -12 -5 14 -4 15 9 4 9 -8 15 -8 15 -2 0 6 -9 17 -20
25 -18 13 -19 15 -5 21 9 3 13 10 10 16 -3 5 -2 10 2 10 5 0 14 -9 21 -20 7
-12 8 -20 2 -20 -5 0 -10 5 -10 11 0 5 -5 7 -11 3 -7 -4 -6 -11 5 -22 12 -13
18 -13 31 -2 13 11 13 15 2 29 -8 9 -17 23 -21 31 -4 8 2 3 14 -12 18 -23 25
-26 41 -18 13 7 19 7 19 0 0 -5 -8 -10 -17 -10 -13 0 -14 -3 -5 -12 8 -8 15
-8 27 2 10 8 15 9 15 1 0 -6 4 -11 9 -11 5 0 9 11 9 25 0 24 -12 34 -21 18 -2
-5 -2 -1 0 7 3 8 6 30 8 48 l3 34 -24 -23 c-26 -24 -34 -50 -9 -29 10 9 15 9
15 1 0 -6 -5 -11 -11 -11 -5 0 -7 -6 -3 -12 5 -9 2 -8 -9 1 -10 8 -21 11 -24
7 -4 -4 -1 -11 7 -16 10 -6 11 -10 3 -10 -21 0 -34 36 -23 62 9 21 10 20 4 -7
l-6 -30 26 24 c27 26 37 52 11 31 -10 -9 -15 -9 -15 -1 0 11 13 15 38 12 6 -1
12 3 12 9 0 10 -15 14 -35 10 -5 -1 -4 5 3 12 11 11 17 9 33 -11 17 -21 24
-20 20 2 -1 7 15 11 32 8 4 0 7 3 7 7 0 17 -13 21 -31 9 -14 -9 -21 -9 -30 0
-9 9 -7 11 9 6 16 -4 24 2 36 26 18 34 26 37 44 19 9 -9 12 -9 12 0 0 7 5 12
11 12 8 0 8 -4 0 -13 -8 -11 -5 -14 18 -14 49 0 47 32 -5 68 -24 16 -44 33
-44 36 0 4 3 4 6 0 10 -10 55 37 49 53 -3 8 6 3 19 -12 13 -15 28 -24 32 -20
4 4 0 -5 -9 -20 -10 -16 -13 -28 -7 -28 5 0 10 -5 10 -11 0 -8 -5 -8 -15 1 -8
7 -15 8 -15 2 0 -5 6 -15 14 -21 16 -14 39 8 31 30 -3 8 0 21 5 29 9 13 11 13
20 0 5 -8 7 -22 5 -31 -10 -30 18 -38 52 -14 18 12 30 25 26 28 -3 4 -19 -3
-34 -14 -16 -11 -29 -16 -29 -10 0 6 5 11 10 11 6 0 2 12 -7 27 -10 15 -13 24
-8 21 6 -3 18 5 28 18 19 26 8 34 -13 9 -7 -9 -15 -13 -18 -10 -3 3 3 11 13
18 17 13 16 15 -14 36 -17 12 -31 18 -31 12 0 -6 -5 -11 -11 -11 -8 0 -7 6 2
17 12 15 12 16 -6 10 -18 -7 -19 -6 -3 6 10 8 14 18 10 23 -4 5 -3 6 2 2 5 -4
15 -3 22 3 7 6 18 8 23 5 12 -8 3 -36 -11 -36 -6 0 -5 6 2 15 7 8 8 15 2 15
-5 0 -15 -6 -21 -14 -10 -12 -8 -17 8 -25 16 -9 22 -7 34 9 7 11 17 17 20 13
4 -3 -2 -13 -14 -21 -15 -10 -17 -17 -9 -27 13 -16 52 -16 47 0 -2 5 -13 8
-23 7 -15 -3 -16 -1 -7 9 10 10 15 9 28 -1 18 -15 22 -13 27 14 1 10 -3 21
-10 23 -8 3 -10 -1 -6 -14 6 -16 5 -16 -9 2 -21 26 -21 39 -1 31 9 -4 23 -1
31 5 11 10 11 15 -3 30 -9 10 -13 23 -9 30 5 7 3 10 -5 7 -8 -2 -14 -14 -15
-26 -2 -30 -14 -40 -13 -11 1 13 6 30 11 37 6 7 7 16 3 19 -4 4 -12 1 -17 -7
-9 -13 -10 -13 -7 -1 7 24 21 22 57 -9 18 -17 30 -30 24 -30 -5 0 -14 5 -21
12 -7 7 -12 8 -12 2 0 -18 21 -32 41 -27 26 7 24 17 -9 45 -16 13 -27 29 -24
36 2 7 -2 10 -10 7 -9 -4 -15 0 -15 9 0 9 6 12 16 8 14 -5 14 -4 2 12 -11 13
-12 19 -2 29 10 9 11 8 6 -5 -7 -17 9 -26 18 -10 2 4 2 0 0 -8 -11 -41 -5 -57
22 -57 14 0 25 3 25 8 0 5 -5 9 -11 9 -5 0 -7 5 -3 11 10 16 26 -15 18 -35 -5
-13 -9 -14 -20 -5 -8 7 -14 7 -14 1 0 -10 29 -38 33 -31 25 44 26 48 14 73
-15 32 -21 32 -41 4 -9 -12 -16 -17 -16 -11 0 7 12 24 27 38 15 14 23 25 17
25 -5 0 -15 -5 -22 -12 -9 -9 -12 -9 -12 0 0 7 5 12 11 12 6 0 3 7 -5 16 -18
18 -21 34 -5 34 5 0 8 -4 5 -9 -3 -5 1 -15 10 -22 14 -11 20 -9 44 18 16 17
31 29 34 26 3 -4 6 -2 6 4 0 6 -6 16 -14 22 -17 14 -28 51 -15 51 5 0 9 -8 9
-18 0 -25 18 -41 41 -35 23 6 23 6 4 44 -9 16 -13 34 -10 39 12 20 16 62 5 55
-6 -3 -24 1 -42 9 -36 18 -50 14 -20 -5 17 -11 19 -17 10 -33 -6 -12 -16 -24
-22 -28 -8 -5 -7 -8 2 -8 15 0 52 36 45 44 -4 3 -1 6 5 6 14 0 14 -2 6 -24 -3
-9 -10 -13 -15 -10 -14 8 -11 -4 7 -31 9 -14 12 -25 8 -25 -5 0 -2 -5 6 -11
10 -7 11 -9 2 -7 -8 2 -12 6 -11 8 1 3 -3 15 -9 27 -8 14 -18 20 -32 16 -24
-6 -24 -6 -4 -44 14 -28 14 -33 -1 -55 -8 -13 -20 -24 -26 -24 -5 0 -1 10 11
22 11 12 20 27 20 32 -1 6 -9 1 -19 -11 -10 -12 -21 -19 -25 -16 -13 13 -47
10 -42 -4 8 -21 -2 -15 -15 8 -8 15 -8 19 0 15 6 -4 11 0 11 9 0 9 -4 14 -9
11 -5 -3 -11 1 -14 9 -4 10 -1 12 11 8 15 -6 15 -5 3 11 -11 13 -12 19 -2 29
10 9 11 8 6 -5 -7 -17 9 -26 18 -10 2 4 2 0 0 -8 -5 -19 -6 -21 -4 -42 1 -11
9 -16 24 -16 31 2 46 16 40 38 -7 26 -18 25 -37 -2 -9 -12 -16 -17 -16 -11 0
7 12 24 27 38 15 14 23 25 17 25 -5 0 -15 -5 -22 -12 -9 -9 -12 -9 -12 0 0 7
5 12 11 12 5 0 7 4 4 10 -3 5 0 7 8 4 21 -8 43 24 30 44 -6 10 -17 16 -25 14
-9 -1 -28 5 -44 13 -16 8 -22 15 -13 15 8 0 20 -5 26 -11 8 -8 17 -8 32 0 16
9 28 8 52 -4 17 -9 33 -14 36 -11 8 8 8 85 0 93 -8 7 -37 -16 -37 -29 0 -6 7
-5 15 2 10 9 15 9 15 1 0 -6 -5 -11 -11 -11 -8 0 -7 -5 1 -15 7 -9 10 -18 6
-22 -3 -3 -6 -1 -6 6 0 7 -4 10 -9 7 -4 -3 -17 1 -27 9 -23 18 -35 19 -32 3 2
-6 -4 -13 -12 -15 -20 -4 -47 14 -36 24 5 4 11 2 13 -4 5 -14 34 -18 32 -5 -5
28 2 35 19 19 27 -25 36 -21 15 7 -10 13 -22 22 -26 19 -5 -3 -4 4 2 15 6 11
8 28 4 38 -4 12 -3 15 6 10 8 -5 10 -18 7 -32 -5 -19 -3 -22 11 -18 15 5 15 4
3 -5 -8 -5 -11 -13 -7 -17 7 -8 37 14 37 27 0 5 -8 9 -17 10 -12 0 -13 2 -5 6
7 3 21 -2 31 -12 18 -15 19 -15 16 13 -3 38 -12 52 -36 52 -10 0 -19 4 -19 9
0 16 35 7 52 -14 10 -11 17 -15 18 -8 0 6 -5 15 -11 19 -6 3 -8 16 -5 28 4 17
0 21 -19 22 -26 2 -34 -11 -12 -19 6 -2 2 -3 -9 -1 -15 3 -23 -2 -27 -15 -6
-23 10 -41 35 -41 10 0 18 -4 18 -9 0 -15 -34 -7 -48 12 -11 14 -17 16 -28 6
-8 -7 -13 -18 -10 -26 3 -7 3 -20 0 -28 -5 -13 -9 -13 -26 -1 -11 8 -28 12
-37 9 -9 -4 -13 -2 -8 2 4 5 17 9 29 10 12 1 24 7 26 13 2 7 -2 10 -10 9 -7
-2 -10 -2 -5 0 13 8 7 25 -7 20 -8 -3 -22 1 -33 8 -10 8 -13 15 -6 15 6 0 14
-4 17 -8 12 -20 50 -4 70 31 20 35 20 37 3 49 -18 14 -14 54 4 42 5 -3 9 2 9
11 0 9 -4 13 -10 10 -6 -3 -7 1 -4 9 4 11 -4 22 -24 33 l-30 17 31 38 c26 32
28 40 16 54 -12 15 -15 14 -30 -5 -10 -12 -20 -18 -22 -14 -3 5 6 16 18 25 22
16 25 16 39 2 11 -10 16 -11 16 -3 0 6 -8 18 -17 25 -15 11 -21 9 -41 -9 -21
-20 -23 -20 -39 -4 -10 9 -12 17 -6 17 6 0 13 -6 16 -12 2 -7 7 -10 11 -6 4 3
0 20 -9 37 -11 23 -13 36 -5 50 21 39 9 35 -37 -14 -25 -27 -44 -42 -40 -32 4
11 0 21 -12 29 -15 9 -17 15 -8 30 7 10 15 18 20 18 4 0 5 -4 2 -10 -3 -5 -1
-10 4 -10 6 0 11 -5 11 -11 0 -8 -5 -8 -15 1 -8 7 -15 8 -15 2 0 -5 6 -15 14
-21 19 -16 44 13 28 32 -8 10 -6 16 9 25 10 7 19 8 19 3 0 -5 -6 -11 -12 -14
-7 -2 -10 -8 -5 -13 4 -4 15 0 24 9 14 13 14 19 3 32 -12 14 -15 14 -30 0 -9
-8 -21 -15 -26 -15 -4 0 1 7 12 15 23 15 25 55 5 79 -9 10 -8 15 3 19 9 4 13
1 10 -6 -2 -8 4 -13 17 -14 17 -2 18 1 9 13 -9 10 -9 14 -1 14 11 0 15 -13 12
-37 -2 -14 15 -18 22 -5 2 4 2 0 0 -8 -11 -41 -5 -57 22 -57 14 0 25 3 25 8 0
5 -5 9 -11 9 -5 0 -7 5 -3 11 10 16 26 -15 18 -35 -5 -13 -9 -14 -20 -5 -25
21 -14 -7 12 -32 l26 -24 -7 23 c-3 13 -2 29 4 36 8 9 7 20 -2 39 -15 33 -21
33 -41 5 -9 -12 -16 -17 -16 -11 0 7 12 24 27 38 15 14 23 25 17 25 -5 0 -15
-5 -22 -12 -9 -9 -12 -9 -12 0 0 7 4 12 10 12 5 0 0 11 -12 25 -12 14 -26 25
-31 25 -6 0 -3 -8 6 -18 10 -10 17 -23 17 -28 0 -4 -7 1 -15 13 -10 15 -21 20
-32 16 -10 -4 0 10 21 30 40 39 62 51 31 17z m69 11 c-3 -3 -10 -7 -15 -7 -22
-3 -23 -5 -9 -14 9 -6 10 -10 3 -10 -17 0 -27 21 -14 29 14 9 44 10 35 2z m49
2 c-7 -2 -13 -9 -13 -14 0 -6 6 -9 13 -8 24 3 37 -1 37 -12 0 -8 -6 -7 -16 2
-15 12 -16 11 -10 -9 5 -14 3 -22 -4 -22 -6 0 -9 4 -6 9 9 14 -20 32 -40 25
-15 -6 -14 -2 5 14 13 12 29 22 35 21 6 0 6 -3 -1 -6z m237 1 c0 -8 -19 -13
-24 -6 -3 5 1 9 9 9 8 0 15 -2 15 -3z m127 -12 c-18 -20 -17 -43 2 -66 18 -22
28 -11 10 11 -11 15 -11 16 1 6 8 -7 19 -13 25 -13 5 1 -1 10 -14 21 -13 11
-22 22 -19 24 3 3 19 -9 37 -27 30 -31 32 -31 49 -14 16 17 16 18 -5 12 -12
-4 -24 -2 -28 4 -4 6 7 8 30 5 32 -4 35 -2 25 11 -8 9 -21 12 -34 8 -20 -6
-19 -5 3 15 13 11 29 21 35 20 6 0 6 -3 -1 -6 -7 -2 -13 -9 -13 -14 0 -6 6 -9
13 -8 24 3 37 -1 37 -12 0 -8 -5 -8 -15 1 -10 8 -15 9 -15 2 0 -6 8 -16 18
-22 15 -10 15 -11 0 -6 -9 3 -27 -4 -40 -14 -13 -11 -18 -19 -11 -20 6 0 15 5
18 10 3 6 11 10 18 10 6 0 2 -7 -10 -15 -12 -9 -29 -12 -40 -8 -16 6 -16 5 -4
-10 7 -9 17 -14 22 -11 5 3 9 0 9 -6 0 -7 -8 -9 -22 -4 -20 6 -21 5 -10 -8 10
-13 10 -17 -4 -22 -20 -8 -51 8 -35 18 6 4 11 2 11 -3 0 -6 4 -11 9 -11 5 0 9
11 9 25 0 27 -17 33 -58 22 -8 -2 -12 -2 -7 0 12 7 8 24 -5 22 -25 -3 -38 1
-38 12 0 8 4 8 14 -1 12 -9 15 -8 13 9 -1 13 -6 20 -14 17 -19 -8 -16 0 12 29
29 28 47 35 22 7z m67 9 c-3 -3 -10 -7 -15 -7 -22 -3 -23 -5 -9 -14 9 -6 10
-10 3 -10 -17 0 -27 21 -14 29 14 9 44 10 35 2z m101 0 c-3 -5 -1 -12 5 -16 5
-3 10 -2 10 3 0 6 7 13 16 16 11 4 10 -1 -5 -20 -11 -15 -18 -30 -15 -35 3 -5
0 -9 -7 -9 -7 0 -9 8 -6 21 3 13 0 22 -10 26 -12 5 -12 7 -1 14 17 11 20 11
13 0z m99 -3 c-3 -4 -9 -8 -15 -8 -5 0 -9 4 -9 8 0 5 7 9 15 9 8 0 12 -4 9 -9z
m51 -8 c21 -24 14 -27 -9 -4 -12 12 -16 12 -16 2 0 -7 9 -19 20 -25 16 -11 21
-10 30 5 11 16 11 16 6 -1 -4 -12 -2 -17 6 -14 7 2 12 10 10 17 -2 7 0 20 3
28 5 13 8 12 25 -3 18 -16 20 -16 35 -1 24 24 31 19 9 -6 -10 -13 -19 -24 -20
-25 0 -2 -10 6 -22 17 -12 12 -22 15 -22 9 0 -6 8 -18 18 -25 12 -10 12 -12 2
-9 -12 4 -15 -4 -16 -35 0 -36 1 -38 17 -25 10 10 23 13 35 8 17 -6 17 -5 5
10 -9 11 -10 17 -2 17 11 0 15 -13 12 -37 -1 -7 3 -13 9 -13 5 0 10 5 10 12 0
6 3 8 6 5 4 -4 1 -13 -6 -22 -14 -17 0 -21 17 -4 6 6 9 18 5 27 -3 10 3 7 16
-6 l22 -22 -20 -20 c-11 -11 -20 -16 -20 -11 0 6 5 13 10 16 6 3 10 12 10 18
-1 7 -9 2 -19 -10 l-19 -23 -25 33 c-14 17 -28 29 -32 25 -4 -4 5 -19 19 -35
14 -15 26 -31 26 -36 0 -4 5 -5 11 -1 7 4 7 -1 -1 -16 -9 -16 -9 -25 -1 -33 6
-6 11 -16 11 -21 0 -6 -7 -1 -15 11 -8 12 -12 29 -9 37 4 11 2 15 -7 13 -8 -2
-11 -2 -6 0 15 9 6 23 -14 20 -12 -1 -24 5 -26 13 -4 13 -3 13 6 0 5 -8 13
-11 17 -7 7 7 -13 37 -26 37 -18 0 -17 -41 2 -54 12 -9 16 -16 9 -21 -6 -3 -9
-10 -7 -14 3 -4 -3 -12 -13 -18 -14 -9 -21 -5 -40 22 -16 24 -28 31 -42 28
-23 -6 -23 -6 -4 -44 12 -22 13 -34 4 -50 -6 -11 -13 -18 -17 -15 -3 4 0 12 6
18 7 7 12 17 12 23 -1 5 -9 0 -20 -13 -12 -15 -21 -19 -26 -11 -5 8 -8 8 -13
0 -4 -6 -17 -13 -29 -16 -19 -3 -20 -1 -9 22 9 21 8 27 -6 38 -9 6 -14 15 -10
18 3 4 -3 7 -15 7 -28 0 -35 -15 -15 -31 9 -8 18 -13 20 -11 16 11 20 -3 7
-23 -9 -14 -21 -25 -26 -25 -5 0 -2 7 6 16 21 21 20 29 -5 31 -17 2 -18 -1 -9
-13 9 -10 9 -14 1 -14 -11 0 -15 13 -12 38 2 13 -15 17 -22 5 -2 -5 -2 -2 0 5
1 8 -3 12 -9 10 -15 -5 -17 -34 -5 -63 8 -19 7 -19 -6 -2 -9 10 -17 13 -19 7
-1 -5 -13 -12 -25 -14 -20 -4 -21 -2 -11 20 10 21 8 27 -10 45 -14 13 -22 15
-22 7 0 -7 -5 -5 -11 5 -6 10 -8 21 -5 24 3 4 6 1 6 -6 0 -7 4 -10 9 -6 18 11
52 -38 46 -65 -6 -24 -6 -24 14 -6 21 19 30 42 12 32 -20 -13 -21 27 -1 41 29
20 25 37 -4 18 -22 -15 -27 -15 -55 -1 -38 20 -38 20 -44 -4 -5 -20 14 -54 32
-56 6 -1 16 -2 21 -3 13 -1 -18 -51 -32 -51 -5 0 -2 7 6 16 21 21 20 29 -5 31
-17 2 -18 -1 -9 -13 9 -10 9 -14 1 -14 -11 0 -15 13 -12 38 1 6 -3 12 -9 12
-5 0 -10 -5 -10 -12 0 -6 -3 -8 -6 -5 -4 4 -1 13 6 22 8 9 8 15 2 15 -23 0
-34 -40 -20 -71 4 -10 2 -16 -6 -16 -7 0 -12 10 -11 21 1 12 -4 31 -12 44 -8
13 -9 22 -3 22 5 0 10 -5 10 -11 0 -8 5 -8 15 1 22 18 19 26 -10 25 -34 0 -50
-18 -30 -35 8 -7 15 -17 15 -23 0 -6 -7 -2 -15 9 -15 23 -55 25 -79 5 -10 -9
-15 -8 -19 3 -4 9 -1 13 6 10 8 -2 13 4 14 17 2 17 -1 18 -13 9 -10 -9 -14 -9
-14 -1 0 11 13 15 38 12 13 -2 17 15 5 22 -5 2 -1 2 7 0 34 -10 61 -5 59 10
-3 24 1 37 12 37 8 0 7 -6 -2 -17 -12 -15 -12 -16 3 -10 22 8 33 -10 18 -28
-7 -9 -8 -15 -2 -15 5 0 15 7 22 15 10 13 10 19 -5 35 -21 24 -13 27 9 4 9 -8
16 -11 16 -5 0 6 5 11 12 11 9 0 9 -3 0 -12 -7 -7 -12 -17 -12 -22 0 -6 11 2
25 17 14 15 31 27 38 27 6 0 1 -7 -11 -16 -28 -20 -28 -26 4 -41 20 -9 30 -9
45 0 10 6 19 16 19 21 0 6 6 1 14 -9 12 -16 10 -21 -13 -41 -31 -28 -16 -31
19 -5 21 17 23 22 12 46 -7 15 -8 24 -2 20 5 -3 10 -4 10 -1 0 2 3 13 7 23 6
16 5 16 -10 4 -11 -9 -17 -10 -17 -2 0 11 13 15 38 12 6 -1 12 3 12 9 0 5 -5
10 -12 10 -6 0 -8 3 -5 6 4 4 13 1 22 -6 10 -8 15 -9 15 -1 0 6 6 11 13 11 6
0 -4 -14 -23 -29 -19 -16 -32 -33 -28 -36 4 -4 19 5 35 19 15 14 31 26 36 26
4 0 5 5 1 11 -4 8 0 8 15 0 23 -13 30 3 7 16 -13 7 -13 11 0 27 10 14 14 16
14 5 0 -12 2 -12 11 1 9 12 10 11 4 -5 -4 -11 -8 -29 -9 -40 -1 -13 -7 -19
-19 -17 -9 2 -15 -3 -13 -10 1 -7 1 -10 -1 -5 -9 15 -23 6 -20 -14 1 -12 -5
-24 -13 -26 -13 -4 -13 -3 0 6 8 5 11 13 7 17 -7 7 -37 -13 -37 -26 0 -19 41
-17 55 3 8 12 15 16 15 10 0 -6 -7 -16 -15 -23 -11 -10 -12 -16 -4 -26 13 -16
44 -13 62 6 10 10 9 12 -6 7 -11 -4 -16 -3 -12 3 3 6 1 10 -4 10 -6 0 -11 -4
-11 -10 0 -5 -5 -10 -10 -10 -6 0 -5 8 2 19 9 15 15 17 25 9 10 -8 20 -5 41
13 15 13 30 29 34 34 11 15 10 27 -2 20 -5 -3 -10 -1 -10 4 0 13 10 14 28 2
10 -6 3 -18 -28 -50 -23 -23 -35 -41 -26 -41 7 0 17 7 20 16 3 8 10 13 15 10
4 -3 17 11 27 30 19 35 19 36 0 49 -10 8 -22 12 -27 10 -4 -3 -10 -1 -14 5 -3
5 -11 10 -17 10 -6 0 -6 -6 2 -15 7 -9 10 -18 7 -22 -4 -3 -2 -12 3 -18 8 -9
6 -14 -6 -19 -20 -8 -51 8 -35 18 6 4 11 2 11 -3 0 -6 4 -11 9 -11 5 0 9 11 9
25 0 24 -12 34 -21 18 -2 -5 -2 -1 1 7 2 8 4 22 4 30 0 18 6 40 11 40 2 0 12
-9 22 -20z m35 14 c0 -8 -19 -13 -24 -6 -3 5 1 9 9 9 8 0 15 -2 15 -3z m186
-6 c4 -6 3 -8 -4 -4 -6 3 -13 2 -16 -3 -4 -5 2 -12 11 -14 16 -4 16 -5 1 -6
-23 -1 -34 19 -17 30 18 11 17 11 25 -3z m-1272 -22 c-3 -9 -10 -16 -16 -16
-5 0 -6 -4 -3 -10 3 -5 1 -10 -4 -10 -16 0 -13 13 6 37 20 24 27 24 17 -1z
m960 0 c-3 -9 -10 -16 -16 -16 -5 0 -6 -4 -3 -10 3 -5 1 -10 -4 -10 -16 0 -13
13 6 37 20 24 27 24 17 -1z m242 6 c-4 -12 3 -27 19 -42 20 -19 27 -21 40 -10
8 7 12 16 9 21 -3 5 0 9 5 9 14 0 14 -17 0 -25 -6 -5 -4 -12 8 -22 17 -13 16
-13 -4 -4 -13 7 -24 7 -28 2 -3 -5 3 -12 12 -14 14 -4 15 -5 2 -6 -8 0 -28 15
-43 34 -16 19 -33 35 -39 35 -5 0 -3 -8 6 -18 10 -10 17 -23 17 -28 0 -4 -7 2
-16 14 -15 22 -17 22 -40 7 -13 -8 -24 -11 -24 -6 0 5 8 12 19 16 10 3 27 17
37 30 22 30 27 31 20 7z m-1782 -18 c8 -22 8 -24 -6 -24 -6 0 -8 3 -5 7 4 3 2
12 -4 20 -7 8 -8 13 -1 13 5 0 13 -7 16 -16z m26 6 c0 -5 -2 -10 -4 -10 -3 0
-8 5 -11 10 -3 6 -1 10 4 10 6 0 11 -4 11 -10z m671 -13 c-10 -9 -11 -8 -5 6
3 10 9 15 12 12 3 -3 0 -11 -7 -18z m179 -9 c0 -12 -10 -9 -26 6 -20 21 -17
28 6 14 11 -7 20 -16 20 -20z m960 0 c0 -12 -10 -9 -26 6 -20 21 -17 28 6 14
11 -7 20 -16 20 -20z m-1810 -28 c13 -9 13 -11 0 -20 -21 -13 -26 -13 -41 8
-13 15 -12 16 4 3 9 -8 21 -11 24 -7 4 4 1 11 -7 16 -8 6 -10 10 -5 10 6 0 17
-5 25 -10z m22 -32 c-7 -7 -12 -17 -12 -22 1 -6 9 -1 20 12 l19 23 17 -26 c9
-14 14 -28 10 -32 -3 -3 -6 -1 -6 5 0 7 -5 12 -10 12 -6 0 -10 -6 -9 -12 3
-25 -1 -38 -12 -38 -8 0 -7 6 2 17 12 15 12 16 -6 9 -17 -6 -17 -4 4 18 26 27
19 36 -8 12 -10 -9 -22 -12 -30 -7 -11 7 -10 12 5 28 11 11 21 18 23 16 3 -2
-1 -9 -7 -15z m148 -2 c0 -3 -4 -8 -10 -11 -5 -3 -10 -1 -10 4 0 6 5 11 10 11
6 0 10 -2 10 -4z m1397 -22 c-7 -7 -37 7 -37 17 0 6 9 5 21 -1 11 -7 19 -14
16 -16z m-1587 6 c0 -5 -4 -10 -10 -10 -5 0 -10 5 -10 10 0 6 5 10 10 10 6 0
10 -4 10 -10z m1860 0 c0 -5 -4 -10 -10 -10 -5 0 -10 5 -10 10 0 6 5 10 10 10
6 0 10 -4 10 -10z m-1830 -40 c9 -16 8 -18 -5 -14 -8 3 -13 10 -10 14 3 5 -3
11 -12 13 -16 4 -17 5 -1 6 10 0 22 -8 28 -19z m1831 3 c13 -16 12 -17 -4 -4
-9 8 -21 11 -24 7 -4 -4 -1 -11 7 -16 8 -6 11 -10 5 -10 -5 0 -17 5 -25 10
-13 9 -13 11 0 20 21 13 26 13 41 -7z m-1866 -11 c-3 -3 -11 0 -18 7 -9 10 -8
11 6 5 10 -3 15 -9 12 -12z m1835 -34 c0 -13 -18 -9 -23 5 -2 6 -8 9 -13 4 -4
-4 0 -15 9 -24 13 -13 19 -14 31 -4 9 8 13 17 10 22 -3 5 0 9 5 9 14 0 14 -17
0 -25 -6 -5 -4 -12 8 -22 17 -13 16 -13 -4 -4 -14 7 -24 8 -28 1 -3 -5 2 -10
12 -11 12 0 14 -2 4 -6 -7 -3 -24 7 -37 22 -27 32 -26 28 -18 49 5 12 9 13 25
3 10 -6 19 -15 19 -19z m-200 0 c0 -12 3 -18 7 -15 3 4 12 -1 18 -10 11 -15
17 -15 40 -5 14 7 23 8 20 2 -3 -5 -4 -10 -1 -10 2 0 13 -3 23 -7 16 -6 16 -5
4 10 -9 11 -10 17 -2 17 11 0 15 -13 12 -37 -1 -7 2 -13 8 -13 5 0 12 6 14 13
4 9 6 9 6 0 2 -21 -20 -25 -39 -8 -18 16 -20 16 -35 1 -24 -24 -31 -19 -9 5
19 21 19 22 -3 15 -27 -8 -69 16 -76 44 -3 11 -1 20 4 20 5 0 9 -10 9 -22z
m-946 0 c-3 -4 -13 -7 -21 -6 -9 2 -18 -3 -20 -10 -3 -6 1 -10 9 -9 7 2 10 2
6 0 -16 -9 -7 -23 13 -20 12 1 23 -4 25 -11 1 -7 0 -8 -3 -2 -8 17 -25 11 -19
-7 4 -11 -3 -8 -18 9 -13 15 -27 24 -31 20 -4 -4 -1 5 5 19 8 18 20 27 36 27
13 0 21 -5 18 -10z m1056 2 c0 -5 -4 -10 -10 -10 -5 0 -10 5 -10 10 0 6 5 10
10 10 6 0 10 -4 10 -10z m-1750 -20 c0 -5 -2 -10 -4 -10 -3 0 -8 5 -11 10 -3
6 -1 10 4 10 6 0 11 -4 11 -10z m330 -45 c14 -19 14 -19 -2 -6 -10 7 -18 18
-18 24 0 6 1 8 3 6 1 -2 9 -13 17 -24z m160 0 c14 -19 14 -19 -2 -6 -10 7 -18
18 -18 24 0 6 1 8 3 6 1 -2 9 -13 17 -24z m800 0 c14 -19 14 -19 -2 -6 -10 7
-18 18 -18 24 0 6 1 8 3 6 1 -2 9 -13 17 -24z m160 0 c14 -19 14 -19 -2 -6
-10 7 -18 18 -18 24 0 6 1 8 3 6 1 -2 9 -13 17 -24z m381 -6 c10 -6 8 -8 -7
-7 -12 1 -21 10 -22 22 -1 15 1 17 7 7 5 -7 15 -17 22 -22z m-1551 12 c0 -5
-7 -12 -16 -15 -14 -5 -15 -4 -4 9 14 17 20 19 20 6z m368 -4 c8 -10 6 -13 -7
-13 -11 0 -17 6 -14 13 3 7 6 13 8 13 1 0 7 -6 13 -13z m136 -3 c5 -14 4 -15
-9 -4 -12 10 -15 10 -15 0 0 -8 -3 -11 -6 -7 -7 7 4 27 16 27 4 0 11 -7 14
-16z m325 7 c9 -6 10 -11 2 -15 -6 -4 -11 -2 -11 3 0 6 -4 11 -10 11 -5 0 -10
-6 -10 -14 0 -8 -4 -17 -9 -20 -12 -8 -8 27 4 36 13 10 17 10 34 -1z m560 0
c9 -6 10 -11 2 -15 -6 -4 -11 -2 -11 5 0 8 -4 8 -15 -1 -13 -11 -14 -10 -9 4
7 18 13 19 33 7z m-1594 -19 c-3 -3 -11 0 -18 7 -9 10 -8 11 6 5 10 -3 15 -9
12 -12z m871 -29 c-3 -4 -6 -1 -6 7 0 10 -3 10 -15 0 -18 -15 -20 -5 -2 14 10
12 13 12 20 -1 5 -8 6 -17 3 -20z m80 2 c-4 -10 2 -19 17 -25 12 -5 15 -9 7
-9 -16 0 -50 22 -50 33 0 4 5 4 10 1 6 -3 10 -1 10 4 0 6 3 11 6 11 3 0 3 -7
0 -15z m48 -14 c4 -5 -3 -7 -14 -4 -23 6 -26 13 -6 13 8 0 17 -4 20 -9z m-228
-46 c-10 -14 -24 -29 -32 -32 -7 -3 -11 -9 -8 -14 3 -5 -3 -6 -12 -2 -10 4
-13 8 -7 10 7 3 9 12 6 21 -4 14 -3 15 6 2 5 -8 14 -11 18 -6 4 4 -1 14 -11
22 -11 8 -15 14 -9 14 7 0 15 -4 18 -10 10 -17 22 -11 28 12 4 12 9 19 13 15
4 -3 -1 -18 -10 -32z m227 -19 c4 -10 1 -13 -8 -9 -8 3 -12 9 -9 14 7 12 11
11 17 -5z m-243 -91 c0 -5 -5 -3 -10 5 -5 8 -10 11 -10 5 0 -5 -5 -3 -10 5
-16 25 -11 31 10 13 11 -10 20 -22 20 -28z m14 30 c11 -8 17 -17 14 -21 -4 -3
-16 4 -27 15 -24 24 -15 28 13 6z m191 3 c-11 -6 -23 -16 -27 -22 -9 -13 -10
-4 -3 16 3 8 16 14 28 15 21 2 21 2 2 -9z m29 -13 c-4 -8 -10 -12 -15 -9 -5 3
-9 0 -9 -6 0 -6 -5 -8 -11 -4 -8 4 -3 12 12 20 30 17 29 17 23 -1z m-254 -29
c0 -2 -8 -10 -17 -17 -16 -13 -17 -12 -4 4 13 16 21 21 21 13z m50 -6 c0 -5
-4 -10 -10 -10 -5 0 -10 5 -10 10 0 6 5 10 10 10 6 0 10 -4 10 -10z m196 -35
c-10 -15 -21 -23 -24 -19 -4 3 -1 9 6 11 10 4 10 8 1 19 -7 8 -9 17 -5 21 3 3
6 1 6 -5 0 -7 5 -12 11 -12 6 0 8 7 4 18 -5 13 -4 14 6 5 9 -9 8 -18 -5 -38z
m-234 18 c-10 -4 -10 -8 -1 -19 7 -8 9 -17 6 -21 -4 -3 -2 -12 4 -20 11 -12 7
-15 -17 -12 -4 0 -11 -5 -16 -13 -8 -10 -9 -10 -5 2 2 8 9 14 15 13 5 -1 10 9
10 22 0 14 -4 25 -9 25 -5 0 -9 -5 -9 -12 0 -6 -3 -8 -6 -5 -4 4 1 18 10 33
10 14 21 22 24 18 4 -3 1 -9 -6 -11z m258 -27 c0 -2 -8 -10 -17 -17 -16 -13
-17 -12 -4 4 13 16 21 21 21 13z m-214 -14 c16 -10 -16 -56 -41 -60 l-20 -2
20 11 c21 13 35 29 35 42 0 5 -4 5 -10 2 -5 -3 -10 -1 -10 4 0 13 10 14 26 3z
m154 -2 c0 -5 -4 -10 -10 -10 -5 0 -10 5 -10 10 0 6 5 10 10 10 6 0 10 -4 10
-10z m30 -25 c0 6 5 3 10 -5 16 -25 11 -31 -10 -13 -11 10 -20 22 -20 28 0 5
5 3 10 -5 5 -8 10 -10 10 -5z m-20 -15 c11 -11 17 -20 13 -20 -11 1 -43 26
-43 34 0 11 9 7 30 -14z m43 -47 c-7 -3 -9 -12 -6 -21 4 -14 3 -15 -6 -2 -5 8
-14 11 -18 6 -4 -4 1 -14 11 -22 11 -8 15 -14 9 -14 -7 0 -15 5 -18 10 -9 15
-25 12 -25 -4 0 -8 -4 -18 -10 -21 -21 -13 -8 18 19 45 16 16 26 32 23 35 -4
3 2 3 13 -1 10 -4 14 -9 8 -11z m-263 -18 c0 -12 -19 -12 -23 0 -4 9 -1 12 9
8 7 -3 14 -7 14 -8z m23 -60 c8 -8 17 -11 21 -8 3 4 6 2 6 -4 0 -16 -57 -10
-72 7 -11 12 -11 12 5 1 9 -8 21 -11 24 -7 4 4 1 11 -7 16 -9 6 -10 10 -3 10
6 0 18 -7 26 -15z m237 -20 c8 -9 8 -15 2 -15 -6 0 -12 6 -15 13 -2 6 -7 9
-11 5 -4 -3 -3 -16 4 -27 7 -14 7 -21 0 -21 -5 0 -10 7 -10 16 0 11 -5 14 -17
10 -15 -6 -15 -4 2 14 22 24 29 25 45 5z m-260 -25 c0 -5 -4 -10 -10 -10 -5 0
-10 5 -10 10 0 6 5 10 10 10 6 0 10 -4 10 -10z m210 -30 c-8 -5 -17 -7 -19 -4
-3 3 1 9 9 14 8 5 17 7 19 4 3 -3 -1 -9 -9 -14z m-187 -28 c19 -17 22 -32 6
-32 -5 0 -7 5 -3 12 5 7 2 9 -9 5 -11 -4 -14 -2 -10 9 3 8 -1 14 -10 14 -9 0
-19 4 -22 10 -8 14 26 1 48 -18z m241 19 c4 -5 -3 -7 -14 -4 -23 6 -26 13 -6
13 8 0 17 -4 20 -9z m-23 -19 c-7 -2 -18 1 -23 6 -8 8 -4 9 13 5 13 -4 18 -8
10 -11z m4 -16 c7 3 16 1 20 -5 4 -7 0 -8 -11 -4 -14 5 -15 3 -4 -17 8 -15 8
-20 1 -16 -6 4 -11 0 -11 -9 0 -9 4 -14 9 -11 5 3 11 -1 14 -9 4 -10 1 -12
-11 -8 -15 6 -15 5 -3 -11 11 -13 12 -19 2 -29 -10 -9 -11 -8 -6 6 7 16 -9 25
-18 10 -2 -5 -2 -1 0 7 11 41 5 58 -22 58 -14 0 -25 -4 -25 -9 0 -5 5 -9 11
-9 5 0 7 -5 3 -11 -10 -16 -26 15 -18 35 5 13 10 14 20 5 10 -8 13 -6 11 10
-1 12 -5 21 -9 21 -4 0 -8 5 -8 11 0 6 9 4 21 -5 12 -8 27 -12 34 -10z m-256
7 c-3 -19 2 -34 9 -29 4 2 14 1 21 -3 9 -6 10 -11 2 -15 -6 -4 -11 -2 -11 4 0
6 -4 9 -9 5 -12 -7 -33 29 -24 39 8 8 13 8 12 -1z m81 -8 c0 -8 -4 -15 -8 -15
-5 0 -9 7 -9 15 0 8 4 15 9 15 4 0 8 -7 8 -15z m-10 -105 c0 -5 -5 -10 -11
-10 -5 0 -7 5 -4 10 3 6 8 10 11 10 2 0 4 -4 4 -10z m180 -35 c5 3 14 -5 20
-17 9 -20 9 -21 -2 -7 -7 9 -17 16 -23 17 -5 0 -10 5 -11 12 -2 6 -1 7 3 0 2
-5 9 -8 13 -5z m-232 -47 c3 2 7 -1 8 -7 2 -7 1 -8 -3 -1 -2 5 -9 8 -13 5 -5
-3 -14 5 -20 17 -11 22 -11 22 5 3 9 -11 19 -19 23 -17z m296 -97 c3 -5 -1
-11 -9 -14 -9 -4 -12 -1 -8 9 6 16 10 17 17 5z m-39 -11 c3 -5 1 -10 -4 -10
-6 0 -11 5 -11 10 0 6 2 10 4 10 3 0 8 -4 11 -10z m-328 -70 c0 -17 -3 -26 -7
-20 -4 6 -17 12 -28 13 -26 2 -26 1 -5 18 11 10 14 10 9 2 -4 -7 -2 -13 4 -13
6 0 13 7 16 15 9 22 11 19 11 -15z m418 0 l20 -25 -22 19 c-13 11 -23 24 -23
29 0 6 1 8 3 6 1 -2 11 -15 22 -29z m-370 0 c3 -5 1 -10 -4 -10 -6 0 -11 5
-11 10 0 6 2 10 4 10 3 0 8 -4 11 -10z m-111 -104 c13 3 27 1 30 -4 3 -6 -2
-8 -12 -5 -12 3 -22 -3 -28 -17 -9 -21 -10 -21 -34 7 -22 24 -22 25 -2 9 12
-11 24 -17 27 -14 3 3 -1 11 -10 18 -8 7 -15 18 -15 24 0 6 5 3 11 -7 7 -12
17 -15 33 -11z m586 -36 c0 -5 -5 -10 -11 -10 -5 0 -7 5 -4 10 3 6 8 10 11 10
2 0 4 -4 4 -10z m-570 -10 c0 -5 -4 -10 -10 -10 -5 0 -10 5 -10 10 0 6 5 10
10 10 6 0 10 -4 10 -10z m180 -48 c0 -4 -9 -13 -20 -20 -11 -7 -20 -17 -20
-24 0 -6 7 -4 18 5 10 10 23 17 28 17 4 0 -2 -7 -14 -16 -18 -12 -20 -19 -12
-35 16 -30 -3 -22 -20 8 -14 25 -14 29 5 49 21 23 35 29 35 16z m90 -2 c0 -5
-4 -10 -10 -10 -5 0 -10 5 -10 10 0 6 5 10 10 10 6 0 10 -4 10 -10z m296 -37
c-6 -6 -36 9 -36 18 0 5 9 4 20 -3 10 -7 18 -14 16 -15z m-658 -2 c12 -6 22
-17 22 -24 0 -8 -3 -7 -9 2 -6 8 -26 14 -51 14 -25 0 -45 -6 -51 -14 -7 -11
-9 -11 -9 -1 0 8 9 16 20 19 11 3 18 9 15 13 -7 12 36 5 63 -9z m472 -25 c0
-2 -7 -7 -16 -10 -8 -3 -12 -2 -9 4 6 10 25 14 25 6z m-576 -31 c-4 -8 -11
-12 -17 -8 -8 5 -7 8 1 11 7 2 9 9 6 14 -4 7 -2 8 4 4 6 -4 9 -13 6 -21z m486
-20 c-11 -13 -9 -15 10 -13 13 2 25 -3 27 -12 4 -13 3 -13 -6 0 -5 8 -13 11
-17 7 -4 -4 1 -16 10 -26 22 -24 12 -44 -17 -35 -19 6 -20 5 -8 -10 9 -10 10
-16 2 -16 -11 0 -15 13 -11 39 1 13 -1 13 -14 2 -9 -8 -16 -9 -16 -3 0 6 6 13
13 16 10 5 10 7 0 12 -7 3 -13 11 -13 17 0 7 14 -4 29 -23 16 -19 33 -32 36
-28 4 4 -4 19 -18 34 -24 26 -26 54 -5 54 6 0 5 -6 -2 -15z m-50 -15 c0 -5 -4
-10 -10 -10 -5 0 -10 5 -10 10 0 6 5 10 10 10 6 0 10 -4 10 -10z m475 -10 c3
-5 1 -10 -4 -10 -6 0 -11 5 -11 10 0 6 2 10 4 10 3 0 8 -4 11 -10z m-368 -32
c-3 -7 -5 -2 -5 12 0 14 2 19 5 13 2 -7 2 -19 0 -25z m373 2 c0 -5 -4 -10 -10
-10 -5 0 -10 5 -10 10 0 6 5 10 10 10 6 0 10 -4 10 -10z m25 -10 c3 -5 1 -10
-4 -10 -6 0 -11 5 -11 10 0 6 2 10 4 10 3 0 8 -4 11 -10z m-505 -10 c0 -5 -4
-10 -10 -10 -5 0 -10 5 -10 10 0 6 5 10 10 10 6 0 10 -4 10 -10z m486 -22
c-25 -14 -20 -31 5 -17 16 8 24 8 33 -1 8 -8 6 -9 -8 -4 -15 6 -17 4 -11 -6 6
-10 4 -12 -7 -7 -9 3 -21 0 -27 -6 -17 -17 -13 -31 4 -17 9 7 18 10 22 7 3 -4
12 -2 18 3 9 8 14 6 19 -6 8 -20 -8 -51 -18 -35 -4 6 -2 11 3 11 6 0 11 4 11
9 0 5 -11 9 -25 9 -24 0 -34 -12 -17 -21 4 -2 0 -2 -8 1 -18 6 -51 5 -57 -2
-2 -2 3 -18 12 -36 15 -29 15 -34 0 -56 -22 -34 -1 -30 24 5 24 33 26 42 10
39 -6 -2 -15 7 -20 20 -5 13 -5 22 1 22 6 0 10 -9 10 -21 0 -11 5 -17 10 -14
6 3 13 -1 16 -9 3 -9 13 -16 21 -16 12 0 12 2 -1 16 -18 18 -21 34 -5 34 5 0
8 -4 5 -9 -3 -5 1 -14 8 -20 11 -9 19 -9 35 1 22 13 28 28 12 28 -6 0 -13 -4
-16 -10 -3 -5 -11 -10 -17 -10 -6 0 1 11 17 24 20 17 24 25 14 29 -8 3 -9 6
-3 6 6 1 18 -7 25 -16 12 -14 12 -16 0 -8 -11 6 -13 4 -7 -10 5 -14 0 -25 -16
-38 -23 -19 -17 -19 29 0 17 7 29 -25 15 -39 -8 -8 -9 -5 -5 11 3 13 1 21 -6
21 -7 0 -10 -4 -6 -9 3 -5 -10 -8 -31 -6 -34 3 -35 3 -18 -16 16 -18 16 -20
-2 -40 -18 -20 -18 -20 8 -14 15 4 29 2 32 -4 4 -6 13 -11 19 -11 7 1 3 8 -8
18 -21 17 -30 52 -14 52 5 0 9 -8 9 -18 0 -23 19 -42 36 -35 7 2 23 -2 36 -11
12 -9 18 -16 12 -16 -5 0 -15 5 -21 11 -8 8 -17 8 -32 0 -15 -9 -26 -9 -42 -1
-33 18 -33 4 -1 -19 32 -23 47 -27 37 -11 -3 6 -4 10 -1 10 2 0 11 3 19 6 8 3
22 -2 31 -11 9 -9 16 -12 16 -6 0 6 5 11 10 11 6 0 6 -7 -2 -19 -11 -18 -12
-18 -28 2 l-17 20 -21 -21 c-29 -29 -28 -38 3 -18 14 9 25 14 25 11 0 -11 -25
-30 -44 -33 -14 -3 -18 1 -14 16 8 28 -47 69 -67 52 -8 -7 -12 -16 -9 -21 3
-5 0 -9 -6 -9 -7 0 -10 6 -7 14 4 10 -1 14 -14 13 -14 -1 -19 -7 -17 -22 2
-13 10 -19 23 -18 11 1 14 0 8 -3 -7 -3 -13 -10 -13 -15 0 -6 6 -9 13 -8 24 3
37 -1 37 -12 0 -8 -5 -8 -15 1 -20 17 -19 1 2 -24 10 -12 4 -8 -14 8 l-31 28
3 -36 c2 -22 0 -34 -6 -30 -15 9 -38 -16 -32 -34 3 -9 -8 -1 -25 18 -34 39
-44 33 -12 -7 11 -14 20 -31 20 -37 0 -6 -9 4 -20 21 -19 33 -42 36 -63 9 -5
-7 -6 -4 -3 7 4 12 2 17 -6 14 -7 -2 -12 -11 -10 -20 3 -19 -14 -32 -23 -17
-3 5 -11 10 -17 10 -6 0 -3 -9 7 -20 10 -11 24 -20 31 -20 7 0 16 -5 20 -12 5
-8 2 -9 -9 -5 -53 22 -53 22 -39 5 10 -13 10 -17 -3 -22 -8 -3 -21 -3 -29 0
-10 4 -13 -4 -10 -32 1 -23 -1 -33 -6 -25 -6 11 -14 9 -39 -8 -17 -12 -31 -18
-31 -12 0 6 4 11 9 11 6 0 22 11 37 25 26 24 27 27 11 42 -16 16 -18 16 -34 0
-9 -9 -13 -20 -9 -24 4 -4 11 -1 16 7 5 8 11 12 14 10 2 -3 -1 -12 -8 -21 -9
-14 -15 -15 -29 -5 -15 12 -15 14 4 34 11 12 14 22 8 22 -6 0 -17 -7 -23 -16
-12 -16 -51 -9 -40 7 3 5 -2 9 -11 9 -9 0 -13 -4 -10 -10 3 -5 0 -7 -8 -4 -9
3 -22 -4 -31 -17 -8 -13 -18 -20 -21 -18 -2 3 4 15 15 27 12 12 16 22 11 22
-5 0 -9 9 -8 20 1 11 5 20 10 20 4 0 7 -7 5 -16 -2 -10 3 -19 11 -22 8 -3 11
0 7 7 -4 6 0 25 8 43 20 40 20 48 -2 23 -19 -22 -52 -32 -52 -15 0 6 4 9 8 6
5 -3 18 2 30 10 18 12 20 19 12 35 -6 10 -7 19 -2 19 5 0 14 -11 20 -25 10
-21 9 -32 -4 -56 -8 -17 -13 -33 -10 -36 7 -8 85 -8 92 0 3 3 -2 19 -10 36
-13 24 -14 35 -4 56 6 14 16 25 21 25 5 0 2 -12 -8 -26 -9 -14 -14 -28 -11
-31 2 -3 10 4 17 16 10 15 16 17 26 9 16 -13 17 4 1 20 -7 7 -8 12 -2 12 5 0
15 -9 22 -21 7 -12 16 -18 19 -15 3 3 0 12 -7 21 -8 10 -9 15 -1 15 6 0 11 -5
11 -10 0 -6 10 -2 22 9 20 19 22 19 34 4 10 -14 9 -20 -5 -29 -9 -7 -18 -10
-21 -8 -2 3 2 9 10 14 8 5 11 12 7 16 -4 4 -15 0 -24 -9 -13 -13 -14 -19 -4
-31 11 -14 16 -13 39 2 14 9 23 11 19 5 -5 -9 -2 -13 8 -13 9 0 13 5 10 10 -3
6 -2 10 3 10 5 0 22 11 38 25 15 13 30 22 32 20 3 -3 -6 -13 -19 -24 -20 -16
-21 -21 -10 -35 12 -14 15 -14 37 2 13 9 24 23 24 30 0 8 -8 5 -22 -8 -12 -11
-24 -18 -26 -15 -3 2 6 13 19 24 20 16 22 22 11 33 -10 10 -16 10 -32 0 -29
-18 -38 -15 -11 5 19 13 28 14 42 4 11 -6 19 -7 19 -2 0 6 -6 14 -12 18 -27
17 -16 49 15 44 4 0 7 3 7 7 0 17 -12 21 -30 10 -13 -9 -23 -7 -41 5 -13 10
-18 17 -12 17 7 0 15 -4 18 -10 12 -19 34 -10 52 20 9 17 21 30 26 30 5 0 4
-6 -2 -14 -7 -8 -8 -16 -4 -18 4 -3 2 -3 -5 -1 -8 1 -12 -2 -10 -8 2 -6 7 -10
11 -10 4 1 13 1 20 1 8 0 14 12 14 29 0 44 -30 47 -58 6 -19 -27 -26 -31 -40
-22 -15 10 -15 12 2 31 11 11 19 25 19 30 -1 6 -9 1 -19 -11 -10 -12 -21 -19
-25 -16 -4 4 -16 7 -27 8 -13 1 -18 -3 -14 -12 3 -8 -2 -24 -10 -36 -8 -12
-15 -16 -15 -10 0 7 5 15 10 18 6 3 10 11 10 18 0 6 -11 0 -25 -15 -25 -27
-33 -44 -16 -34 5 3 8 -11 8 -32 -1 -35 -19 -61 -42 -62 -5 0 0 7 11 15 22 15
25 58 5 78 -6 6 0 18 20 35 17 14 28 31 25 39 -3 8 -1 11 4 8 6 -3 10 2 10 11
0 10 -3 15 -6 11 -4 -3 -15 4 -25 16 -10 12 -18 17 -19 10 0 -6 4 -14 9 -17 5
-3 9 -17 9 -31 0 -13 -5 -22 -10 -19 -5 3 -7 12 -4 19 2 7 -2 22 -10 33 -12
17 -12 21 1 26 8 3 15 11 15 18 0 9 -3 9 -12 0 -7 -7 -17 -12 -22 -12 -13 1
14 18 29 19 6 0 10 -5 10 -12 1 -18 14 -37 27 -37 6 0 6 6 -2 15 -7 9 -10 18
-7 22 4 3 2 12 -3 18 -8 9 -6 14 6 19 20 8 51 -8 35 -18 -6 -4 -11 -2 -11 3 0
6 -4 11 -9 11 -5 0 -8 -11 -8 -25 0 -24 11 -34 20 -17 2 4 2 0 0 -8 -5 -19 -6
-21 -4 -42 1 -11 9 -16 24 -16 31 2 46 16 40 38 -7 26 -18 25 -37 -2 -9 -12
-16 -17 -16 -11 0 7 12 24 27 38 15 14 23 25 17 25 -5 0 -15 -5 -22 -12 -9 -9
-12 -9 -12 0 0 7 5 12 11 12 5 0 7 5 3 12 -5 7 -3 8 5 4 7 -5 21 0 32 10 23
20 26 12 3 -10 -13 -14 -13 -16 -1 -16 15 0 32 27 28 44 -1 4 3 14 9 20 5 7 7
16 3 20 -4 4 1 4 11 0 16 -6 17 -8 2 -16z m-421 -22 c14 1 32 7 39 13 10 9 15
8 19 -3 4 -11 1 -13 -10 -9 -12 5 -14 3 -8 -7 6 -10 4 -12 -7 -7 -9 3 -21 0
-27 -6 -17 -17 -13 -31 4 -17 9 7 18 10 22 7 3 -4 12 -2 18 3 9 8 14 6 19 -6
8 -20 -8 -51 -18 -35 -4 6 -2 11 3 11 6 0 11 4 11 9 0 5 -11 9 -25 9 -24 0
-34 -12 -17 -21 4 -2 0 -2 -8 0 -19 5 -21 6 -42 4 -11 -1 -16 -9 -16 -23 2
-32 16 -47 38 -41 26 7 25 18 -2 37 -12 9 -17 16 -11 16 7 0 24 -12 38 -27 14
-15 25 -23 25 -17 0 5 -5 15 -12 22 -9 9 -9 12 0 12 7 0 12 -5 12 -11 0 -5 5
-7 12 -3 7 5 8 3 4 -5 -5 -8 9 -29 38 -58 25 -25 46 -40 46 -33 0 7 -16 27
-35 44 -19 18 -35 36 -35 40 0 4 8 0 17 -9 16 -16 18 -16 35 5 10 12 15 26 12
31 -3 5 0 9 6 9 16 0 8 -33 -13 -48 -14 -11 -15 -17 -7 -27 13 -16 52 -16 47
0 -2 5 -13 8 -23 7 -15 -3 -17 -1 -6 9 10 11 15 10 28 -3 16 -16 11 -43 -6
-33 -5 3 -11 1 -15 -5 -8 -14 28 -13 42 1 12 12 6 39 -11 52 -7 5 -4 6 7 3 12
-4 17 -2 14 6 -2 7 -11 12 -21 10 -9 -2 -16 1 -16 5 0 21 38 10 49 -13 7 -15
7 -23 1 -19 -5 3 -10 -1 -10 -10 0 -9 4 -14 9 -11 17 11 21 -26 4 -39 -15 -11
-15 -17 -5 -40 7 -14 8 -23 2 -20 -5 3 -10 4 -10 1 0 -2 -3 -13 -7 -23 -6 -16
-5 -16 10 -4 11 9 17 10 17 2 0 -11 -13 -15 -37 -12 -7 1 -13 -3 -13 -9 0 -5
5 -10 12 -10 6 0 8 -3 5 -6 -4 -4 -13 -1 -22 6 -10 8 -15 9 -15 1 0 -6 -6 -11
-12 -11 -7 0 3 14 22 29 19 16 32 33 28 36 -4 4 -19 -5 -35 -19 -15 -14 -31
-26 -36 -26 -4 0 -5 -5 -1 -11 4 -8 0 -8 -15 0 -16 9 -26 9 -42 0 -12 -6 -19
-7 -16 -2 3 5 -8 18 -24 28 -16 11 -29 23 -29 28 0 4 -5 7 -11 7 -5 0 -7 -4
-4 -10 3 -5 1 -10 -4 -10 -6 0 -11 5 -11 11 0 5 -5 7 -10 4 -6 -4 -5 5 2 20
10 22 8 28 -12 47 -29 27 -52 15 -55 -30 -3 -31 -2 -32 14 -18 10 9 21 13 26
9 4 -5 5 -1 3 7 -3 8 -11 14 -17 13 -6 -2 -11 2 -11 7 0 13 11 12 32 -4 13 -9
14 -16 6 -24 -6 -6 -11 -21 -12 -33 -1 -22 -26 -41 -26 -19 0 6 5 8 11 4 7 -4
10 -1 7 6 -7 22 -25 22 -31 0 -4 -14 2 -25 18 -36 13 -8 23 -25 23 -39 0 -18
-3 -21 -13 -12 -7 7 -9 14 -4 15 5 2 9 9 9 14 0 6 -3 8 -7 5 -3 -4 -13 2 -21
14 -11 16 -17 18 -28 8 -8 -6 -12 -19 -9 -28 7 -25 -7 -42 -25 -28 -18 14 -24
37 -10 37 6 0 10 -7 10 -15 0 -8 5 -15 10 -15 13 0 13 6 0 30 -13 25 -53 15
-45 -11 4 -11 2 -19 -5 -19 -6 0 -8 5 -5 10 3 6 1 10 -4 10 -6 0 -11 -4 -11
-10 0 -5 -5 -10 -12 -10 -6 0 -1 11 12 25 13 14 19 25 13 25 -6 0 -16 -7 -23
-15 -7 -9 -15 -13 -18 -10 -3 3 3 12 14 20 16 12 16 14 3 15 -24 0 -38 -22
-29 -45 9 -25 40 -53 40 -36 0 6 5 11 11 11 8 0 8 -5 -1 -15 -7 -8 -16 -12
-21 -9 -5 3 -9 0 -9 -5 0 -6 -5 -11 -11 -11 -8 0 -7 5 2 16 11 13 11 15 -2 14
-26 -4 -39 0 -39 11 0 8 5 8 15 -1 21 -17 19 -1 -5 38 -22 36 -23 37 -50 20
-15 -10 -22 -10 -32 0 -15 15 -38 16 -38 2 0 -6 5 -9 11 -8 6 2 14 -4 16 -12
4 -13 3 -13 -6 0 -9 13 -11 13 -11 1 0 -11 -4 -9 -14 5 -13 16 -12 20 1 28 9
5 24 3 38 -4 27 -15 48 -5 41 18 -3 10 -1 24 4 32 9 13 11 13 20 0 5 -8 7 -22
5 -31 -3 -9 1 -22 9 -28 12 -10 17 -9 27 8 10 15 17 17 32 9 15 -8 25 -5 45
14 15 12 30 28 34 33 11 15 10 27 -2 20 -5 -3 -10 -1 -10 4 0 13 10 14 28 2
10 -6 3 -18 -28 -50 -23 -23 -35 -41 -26 -41 7 0 17 7 20 16 3 8 10 13 15 10
4 -3 16 10 26 28 18 32 18 33 -4 55 -12 12 -21 16 -21 9 0 -7 -5 -5 -11 6 -15
25 14 57 33 37 11 -10 9 -12 -6 -9 -10 1 -21 -2 -23 -7 -5 -16 34 -16 47 0 8
10 7 16 -7 27 -21 15 -29 48 -13 48 6 0 9 -4 6 -8 -11 -18 23 -49 47 -45 14 3
28 0 31 -6 4 -6 13 -11 19 -11 7 1 2 9 -10 19 -12 10 -19 21 -16 25 6 6 12 46
7 46 -12 0 -34 -14 -34 -22 0 -5 5 -6 10 -3 6 3 10 1 10 -5 0 -7 -8 -9 -22 -4
-20 6 -21 5 -9 -10 8 -9 9 -16 3 -16 -17 0 -20 24 -6 41 12 13 9 15 -26 15
-22 -1 -40 -4 -40 -8 0 -5 -5 -8 -11 -8 -8 0 -8 5 1 15 7 8 16 12 21 9 5 -3 9
-1 9 5 0 17 -17 21 -30 6 -12 -15 -40 -10 -40 7 0 6 7 5 16 -3 14 -11 15 -10
12 6 -2 15 4 20 24 21 15 2 30 -1 33 -7 9 -13 19 -11 41 10 20 18 21 18 32 0
8 -12 8 -19 2 -19 -5 0 -10 5 -10 11 0 6 -13 1 -29 -10 -24 -18 -30 -19 -35
-6 -3 8 -10 15 -16 15 -6 0 -5 -8 2 -20 9 -15 19 -19 33 -15 33 11 75 12 69 3
-3 -4 3 -8 12 -8 10 0 14 3 11 7 -4 3 1 12 11 20 16 14 16 14 -2 9 -18 -6 -45
17 -46 39 0 5 7 0 15 -11 9 -14 23 -20 40 -18z m-245 1 c0 -7 -9 -18 -20 -25
-11 -7 -20 -8 -20 -3 0 5 7 12 16 15 8 3 12 10 9 16 -3 5 -1 10 4 10 6 0 11
-6 11 -13z m735 -17 c3 -5 1 -10 -4 -10 -6 0 -11 5 -11 10 0 6 2 10 4 10 3 0
8 -4 11 -10z m-1157 -62 c-2 -6 -10 -13 -16 -14 -7 -1 -8 0 -2 3 5 2 8 9 4 14
-3 5 0 9 6 9 7 0 10 -5 8 -12z m358 -25 c18 -19 21 -29 12 -34 -7 -4 -15 -6
-19 -4 -3 3 -14 -4 -24 -15 -10 -12 -13 -20 -7 -20 7 0 12 -5 12 -11 0 -8 -5
-8 -15 1 -8 7 -12 16 -9 21 3 5 0 9 -5 9 -6 0 -11 5 -11 11 0 8 5 7 16 -2 13
-11 15 -11 14 2 -4 26 0 39 11 39 8 0 8 -4 -1 -14 -9 -12 -8 -15 9 -13 25 2
26 10 4 32 -16 16 -18 16 -35 -5 -21 -25 -24 -19 -6 10 17 26 24 25 54 -7z
m154 14 c0 -4 -7 -7 -16 -5 -10 2 -19 -3 -21 -10 -3 -8 2 -10 14 -6 13 4 14 3
5 -3 -17 -13 -16 -72 1 -100 9 -15 -20 -25 -40 -14 -11 6 -12 10 -4 15 6 4 11
2 11 -3 0 -6 4 -11 9 -11 5 0 9 11 9 25 0 14 -4 25 -9 25 -5 0 -9 -5 -9 -12 0
-6 -3 -8 -6 -5 -4 4 -1 13 6 22 15 18 1 19 -22 1 -19 -14 -25 -32 -8 -21 6 3
10 1 10 -4 0 -14 -17 -14 -25 0 -7 11 40 60 49 51 3 -3 6 2 6 12 0 9 -5 14
-10 11 -6 -4 -6 4 1 19 11 23 49 34 49 13z m705 -5 c-3 -3 -11 0 -18 7 -9 10
-8 11 6 5 10 -3 15 -9 12 -12z m-560 -2 c3 -5 1 -10 -4 -10 -6 0 -11 5 -11 10
0 6 2 10 4 10 3 0 8 -4 11 -10z m355 -10 c0 -5 -5 -10 -11 -10 -5 0 -7 5 -4
10 3 6 8 10 11 10 2 0 4 -4 4 -10z m-1035 -10 c-3 -5 -1 -10 6 -10 15 0 49
-29 49 -42 0 -4 -5 -8 -11 -8 -5 0 -7 5 -3 12 5 7 2 9 -9 5 -11 -4 -14 -2 -10
9 5 12 -12 19 -39 15 -4 0 -5 6 -2 14 4 8 10 15 16 15 5 0 6 -4 3 -10z m1257
-33 c-12 -13 -19 -27 -15 -30 3 -4 1 -7 -5 -7 -7 0 -12 4 -12 8 0 10 38 52 47
52 4 0 -3 -10 -15 -23z m-1268 -3 c6 2 8 1 3 -1 -4 -3 -5 -9 -1 -14 3 -5 1 -9
-3 -9 -5 0 -14 10 -22 23 -9 15 -9 18 -1 10 7 -6 18 -10 24 -9z m1285 -11
c-12 -15 -12 -16 3 -10 12 4 15 2 11 -9 -3 -7 -1 -14 5 -14 6 0 13 6 15 13 4
9 6 9 6 0 2 -21 -20 -25 -40 -7 -14 13 -16 20 -8 31 6 7 14 13 16 13 3 0 -1
-8 -8 -17z m-1314 -3 c3 -5 1 -10 -4 -10 -6 0 -11 5 -11 10 0 6 2 10 4 10 3 0
8 -4 11 -10z m1055 0 c0 -5 -4 -10 -10 -10 -5 0 -10 5 -10 10 0 6 5 10 10 10
6 0 10 -4 10 -10z m-981 -19 c9 -6 10 -11 2 -15 -6 -4 -9 -12 -5 -17 3 -5 -2
-22 -11 -36 -15 -22 -19 -24 -27 -10 -4 9 -15 14 -22 11 -8 -3 -17 -1 -21 5
-7 12 29 10 41 -2 14 -14 26 -7 14 8 -7 9 -10 18 -6 22 3 3 6 1 6 -5 0 -7 4
-12 9 -12 5 0 9 11 9 25 0 14 -4 25 -9 25 -5 0 -9 -5 -9 -11 0 -5 -5 -7 -11
-3 -8 4 -7 9 2 15 8 5 16 9 19 9 3 0 11 -4 19 -9z m-67 -20 c-3 -9 -1 -12 6
-7 7 4 12 2 12 -4 0 -7 -8 -9 -19 -5 -10 3 -24 -1 -31 -10 -7 -9 -23 -20 -34
-26 -19 -8 -18 -8 2 7 12 9 22 21 22 26 0 6 -8 4 -17 -3 -16 -12 -17 -12 -6 2
7 9 9 20 5 25 -4 4 1 2 11 -5 9 -8 21 -11 24 -7 4 4 1 11 -6 16 -10 5 -6 8 11
7 18 -2 24 -6 20 -16z m418 9 c0 -5 -4 -10 -10 -10 -5 0 -10 5 -10 10 0 6 5
10 10 10 6 0 10 -4 10 -10z m609 -6 c-12 -15 -11 -16 8 -10 29 9 39 -11 17
-35 -9 -10 -14 -22 -10 -26 4 -4 12 -1 17 7 9 13 10 13 6 0 -2 -9 -14 -14 -27
-12 -19 2 -21 0 -10 -13 7 -9 8 -15 2 -15 -21 0 -19 28 5 54 14 15 22 30 18
34 -3 4 -20 -9 -36 -28 -15 -19 -29 -30 -29 -23 0 6 6 14 13 17 10 5 10 7 0
12 -7 3 -13 10 -13 16 0 6 7 5 16 -3 13 -11 15 -11 14 2 -4 26 0 39 11 39 8 0
7 -6 -2 -16z m331 -14 c0 -5 -5 -10 -11 -10 -5 0 -7 5 -4 10 3 6 8 10 11 10 2
0 4 -4 4 -10z m-273 -42 c-3 -7 -5 -2 -5 12 0 14 2 19 5 13 2 -7 2 -19 0 -25z
m286 17 c-3 -9 -8 -14 -10 -11 -3 3 -2 9 2 15 9 16 15 13 8 -4z m-858 -5 c7
-12 -2 -12 -30 0 -19 8 -19 9 2 9 12 1 25 -3 28 -9z m685 0 c0 -5 7 -10 15
-10 8 0 15 -4 15 -10 0 -6 -10 -5 -25 2 -25 11 -34 28 -15 28 6 0 10 -4 10
-10z m11 -41 c16 -11 29 -26 29 -32 0 -8 -3 -7 -9 2 -7 11 -11 10 -20 -5 -9
-17 -10 -17 -11 -1 0 9 6 17 13 17 6 0 -1 9 -18 20 -16 11 -26 20 -22 20 5 0
22 -9 38 -21z m-1275 -14 c1 -11 5 -29 10 -40 7 -17 6 -18 -8 -5 -9 8 -13 19
-10 24 3 5 -2 7 -11 3 -12 -4 -14 -2 -10 11 5 14 3 15 -8 5 -16 -16 -29 -17
-29 -3 0 6 6 9 13 8 6 -2 11 2 10 8 -1 6 8 11 20 10 14 -1 22 -8 23 -21z
m1102 -19 c15 5 14 4 -1 -6 -15 -10 -21 -8 -32 7 -8 10 -15 22 -15 28 0 5 7 0
15 -12 10 -14 22 -20 33 -17z m-671 -10 c-6 -15 -47 -18 -47 -3 0 5 9 5 20 2
15 -5 20 -2 20 11 0 10 3 15 6 11 4 -3 4 -13 1 -21z m460 16 c8 -5 7 -12 -3
-27 -15 -20 -15 -20 -30 -1 -11 16 -11 22 -1 28 15 10 19 10 34 0z m-917 -34
c0 -6 -8 -4 -17 3 -15 12 -16 12 -10 -3 4 -12 2 -15 -9 -11 -11 4 -12 9 -4 19
12 14 40 8 40 -8z m1254 -4 c3 -8 2 -12 -4 -9 -6 3 -10 10 -10 16 0 14 7 11
14 -7z m-601 -8 c10 -8 15 -20 11 -29 -7 -19 -54 -52 -54 -38 0 5 9 12 19 16
29 9 33 33 8 50 -12 8 -17 15 -12 15 6 0 18 -7 28 -14z m257 -26 c0 -5 0 -13
-1 -16 0 -4 4 -10 11 -14 6 -4 -3 -7 -20 -7 -17 0 -26 3 -20 7 7 4 11 10 11
14 -3 18 0 26 9 26 6 0 10 -4 10 -10z m317 4 c-3 -3 -12 -4 -19 -1 -8 3 -5 6
6 6 11 1 17 -2 13 -5z m-87 -24 c9 -16 8 -18 -5 -14 -8 3 -12 11 -8 17 4 6 0
8 -11 4 -10 -4 -15 -3 -11 3 10 16 23 12 35 -10z m-580 0 c0 -5 -4 -10 -10
-10 -5 0 -10 5 -10 10 0 6 5 10 10 10 6 0 10 -4 10 -10z m539 -16 c4 3 13 1
19 -3 10 -6 9 -11 -3 -21 -13 -11 -14 -10 -9 4 4 9 3 16 -2 15 -22 -4 -35 2
-28 13 6 9 9 9 12 0 2 -7 7 -10 11 -8z m-431 -31 c-10 -2 -18 -9 -18 -15 0 -6
-3 -9 -6 -5 -10 10 6 27 24 26 15 -1 15 -2 0 -6z m408 -25 c4 -7 4 -10 -1 -6
-4 4 -21 -2 -36 -13 -16 -11 -29 -17 -29 -12 0 6 46 41 57 43 1 0 5 -6 9 -12z
m-186 -9 c13 -9 12 -10 -2 -5 -11 3 -23 -3 -33 -17 -18 -26 -20 -15 -3 13 15
23 18 24 38 9z m-207 -34 c-25 -17 -21 -41 8 -50 10 -4 19 -11 19 -16 0 -14
-47 19 -54 38 -6 15 18 42 39 43 5 0 0 -7 -12 -15z m196 -1 c-12 -15 -11 -16
11 -9 l25 8 -25 -21 c-14 -12 -20 -21 -14 -22 5 0 15 5 22 12 7 7 12 8 12 2 0
-6 -11 -16 -25 -22 -14 -6 -25 -20 -26 -29 0 -11 -3 -13 -6 -5 -3 7 1 19 7 27
10 12 9 16 -4 21 -9 3 -16 11 -16 16 0 6 7 5 16 -3 13 -11 15 -11 14 2 -4 26
0 39 11 39 8 0 7 -6 -2 -16z m46 6 c3 -6 -1 -7 -9 -4 -18 7 -21 14 -7 14 6 0
13 -4 16 -10z m55 -25 c0 -2 -10 -9 -22 -15 -22 -11 -22 -10 -4 4 21 17 26 19
26 11z m-535 -25 c-3 -5 -11 -10 -16 -10 -6 0 -7 5 -4 10 3 6 11 10 16 10 6 0
7 -4 4 -10z m29 -16 c9 -3 13 -11 9 -17 -14 -23 -10 -48 6 -42 10 3 8 -2 -5
-12 -12 -10 -24 -25 -27 -33 -3 -8 -5 -4 -5 10 0 14 -1 32 -4 40 -3 8 -3 12
-1 8 9 -17 21 -7 21 17 0 14 -4 25 -9 25 -5 0 -9 -5 -9 -11 0 -5 -5 -7 -11 -3
-8 4 -7 9 2 15 17 11 14 10 33 3z m426 -9 c-7 -8 -17 -15 -23 -15 -6 0 -2 7 9
15 25 19 30 19 14 0z m-59 -32 c11 -15 11 -16 -1 -6 -10 9 -17 10 -27 2 -9 -8
-13 -8 -13 -1 0 6 6 13 13 15 6 3 13 6 13 6 1 1 8 -7 15 -16z m-148 -52 c-4
-4 -12 -11 -17 -16 -5 -6 -5 1 -1 15 7 22 6 23 -9 11 -9 -8 -16 -9 -16 -3 0 6
6 12 13 15 15 5 41 -14 30 -22z m-253 9 c0 -5 -2 -10 -4 -10 -3 0 -8 5 -11 10
-3 6 -1 10 4 10 6 0 11 -4 11 -10z m134 -13 c-3 -8 2 -14 11 -14 9 0 14 6 11
14 -3 7 -1 13 5 13 6 0 9 -8 7 -17 -4 -20 -26 -24 -46 -9 -11 7 -11 11 0 17
17 11 18 11 12 -4z m156 3 c0 -5 -2 -10 -4 -10 -3 0 -8 5 -11 10 -3 6 -1 10 4
10 6 0 11 -4 11 -10z m-210 -14 c0 -2 -7 -7 -16 -10 -8 -3 -12 -2 -9 4 6 10
25 14 25 6z"/>
<path d="M920 3050 c0 -5 5 -10 10 -10 6 0 10 5 10 10 0 6 -4 10 -10 10 -5 0
-10 -4 -10 -10z"/>
<path d="M1270 3050 c0 -5 5 -10 11 -10 5 0 7 5 4 10 -3 6 -8 10 -11 10 -2 0
-4 -4 -4 -10z"/>
<path d="M1317 3053 c-8 -8 22 -43 36 -43 6 0 19 -8 30 -17 19 -17 19 -17 12
5 -5 16 -1 29 11 43 9 10 12 19 6 19 -6 0 -17 -8 -24 -17 -23 -31 -55 -24 -49
10 1 9 -13 9 -22 0z"/>
<path d="M920 3014 c0 -8 5 -12 10 -9 6 4 8 11 5 16 -9 14 -15 11 -15 -7z"/>
<path d="M815 3007 c-11 -7 -22 -13 -24 -14 -7 -4 21 -33 32 -33 8 0 7 4 0 11
-9 9 -6 16 10 30 25 20 13 24 -18 6z"/>
<path d="M1164 2942 c5 -14 3 -29 -4 -37 -9 -11 -9 -15 -1 -15 6 0 14 6 17 14
3 8 12 12 19 10 7 -3 16 -1 20 5 3 6 1 11 -6 11 -7 0 -21 8 -32 18 -19 16 -19
16 -13 -6z"/>
<path d="M975 2920 c-10 -11 -15 -23 -12 -26 4 -4 9 1 13 10 3 9 10 13 15 10
5 -3 9 2 9 10 0 21 -3 20 -25 -4z"/>
<path d="M835 2920 c4 -6 11 -8 16 -5 14 9 11 15 -7 15 -8 0 -12 -5 -9 -10z"/>
<path d="M1265 2890 c-3 -5 1 -10 9 -10 9 0 16 5 16 10 0 6 -4 10 -9 10 -6 0
-13 -4 -16 -10z"/>
<path d="M1065 3020 c-3 -5 1 -10 10 -10 9 0 13 5 10 10 -3 6 -8 10 -10 10 -2
0 -7 -4 -10 -10z"/>
<path d="M1555 3020 c-3 -5 1 -10 10 -10 9 0 13 5 10 10 -3 6 -8 10 -10 10 -2
0 -7 -4 -10 -10z"/>
<path d="M1785 3021 c-3 -5 -1 -12 5 -16 5 -3 10 1 10 9 0 18 -6 21 -15 7z"/>
<path d="M1443 2978 c0 -13 11 -36 24 -51 25 -31 28 -48 13 -63 -7 -7 -6 -19
2 -37 16 -33 22 -33 43 -4 14 19 16 19 13 3 -2 -10 3 -21 11 -24 8 -2 11 0 8
6 -4 5 0 15 8 22 8 7 12 17 8 23 -4 6 -9 3 -14 -9 -6 -16 -8 -16 -8 -2 -1 19
-37 21 -60 4 -12 -9 -12 -8 -1 11 11 16 17 19 27 11 24 -20 13 8 -12 32 -14
13 -25 30 -25 37 0 8 -4 12 -9 9 -5 -3 -11 1 -14 9 -4 10 -1 12 11 8 15 -6 14
-3 -2 15 -24 27 -25 27 -23 0z m77 -142 c0 -3 -4 -8 -10 -11 -5 -3 -10 -1 -10
4 0 6 5 11 10 11 6 0 10 -2 10 -4z"/>
<path d="M1700 2890 c18 -12 30 -13 30 -2 0 4 -10 9 -22 9 -18 2 -20 0 -8 -7z"/>
<path d="M1655 2820 c-10 -11 -14 -20 -9 -20 12 1 44 25 44 34 0 12 -17 6 -35
-14z"/>
<path d="M1540 2722 c-27 -39 -38 -62 -25 -50 4 4 17 -5 29 -19 32 -41 32
-118 0 -166 -35 -54 -23 -58 13 -5 21 31 35 42 51 41 12 -2 22 3 23 10 0 6 2
30 2 52 1 24 11 53 25 73 l24 33 -22 32 c-20 30 -70 48 -70 26 0 -5 8 -9 18
-10 11 0 12 -2 4 -6 -7 -3 -21 2 -30 10 -16 14 -19 13 -42 -21z m28 1 c-4 -25
10 -43 33 -43 10 0 19 -4 19 -9 0 -16 -35 -7 -52 14 -10 11 -17 15 -18 8 0 -6
5 -15 10 -18 6 -3 10 -14 10 -23 -1 -12 -5 -9 -15 10 -12 21 -13 32 -3 52 13
30 21 34 16 9z m77 -60 c-12 -22 -15 -23 -13 -8 3 27 -9 45 -33 45 -10 0 -19
4 -19 9 0 16 35 7 52 -14 10 -11 17 -15 18 -8 0 6 -4 15 -10 18 -5 3 -10 14
-10 23 1 12 6 8 16 -10 13 -25 13 -31 -1 -55z m-26 -27 c15 -18 -14 -30 -37
-16 -14 9 -13 10 6 5 12 -4 22 -2 22 4 0 5 -8 12 -17 14 -15 4 -15 5 -2 6 9 0
22 -5 28 -13z m-13 -45 c10 8 14 8 14 0 0 -6 -5 -11 -11 -11 -8 0 -7 -5 1 -15
7 -9 10 -18 6 -22 -3 -3 -6 -1 -6 7 0 10 -3 10 -15 0 -10 -9 -15 -9 -15 -1 0
6 5 11 12 11 9 0 9 3 0 12 -7 7 -12 17 -11 23 0 5 3 4 6 -3 4 -10 8 -10 19 -1z"/>
<path d="M1540 2570 c0 -5 5 -10 10 -10 6 0 10 5 10 10 0 6 -4 10 -10 10 -5 0
-10 -4 -10 -10z"/>
<path d="M1640 2570 c0 -5 5 -10 10 -10 6 0 10 5 10 10 0 6 -4 10 -10 10 -5 0
-10 -4 -10 -10z"/>
<path d="M1646 2485 c9 -26 9 -45 -1 -70 -5 -14 1 -10 19 10 21 25 38 61 20
42 -4 -3 -15 4 -26 16 -18 20 -19 20 -12 2z"/>
<path d="M1515 2410 c-3 -5 -1 -10 4 -10 6 0 11 5 11 10 0 6 -2 10 -4 10 -3 0
-8 -4 -11 -10z"/>
<path d="M1640 2330 c0 -5 5 -10 10 -10 6 0 10 5 10 10 0 6 -4 10 -10 10 -5 0
-10 -4 -10 -10z"/>
<path d="M1625 2121 c3 -5 -3 -12 -13 -15 -10 -4 -29 -18 -42 -31 -20 -21 -21
-25 -6 -25 9 0 15 4 11 9 -3 5 3 12 13 15 10 4 29 18 42 31 20 21 21 25 6 25
-9 0 -15 -4 -11 -9z"/>
<path d="M1586 2055 c-3 -8 -12 -15 -21 -15 -19 0 -19 -4 0 -40 14 -27 14 -33
0 -60 -9 -17 -34 -41 -56 -55 -22 -14 -37 -30 -34 -35 8 -13 26 -13 22 1 -1 5
15 20 35 32 36 21 37 21 57 3 12 -11 21 -14 21 -7 0 23 31 23 64 0 49 -34 60
-55 46 -90 -21 -51 27 -75 62 -31 11 13 10 15 -3 10 -9 -4 -22 -1 -28 5 -6 6
-14 7 -18 3 -4 -4 -1 -11 7 -16 9 -6 10 -10 3 -10 -23 0 -25 22 -4 44 14 13
20 15 16 6 -4 -11 1 -16 15 -17 24 -2 38 23 21 40 -6 6 -11 16 -11 21 0 6 7 0
17 -13 13 -19 14 -28 4 -42 -7 -12 -8 -19 -1 -19 6 0 13 7 16 15 5 11 10 13
19 5 9 -8 15 -7 19 2 3 7 4 4 3 -6 -1 -10 3 -21 10 -23 7 -2 10 3 8 14 -2 10
-4 24 -4 31 -1 7 -10 11 -23 9 -13 -2 -17 -2 -10 0 6 3 12 8 12 13 0 12 -30
33 -37 26 -4 -4 -1 -12 7 -17 13 -9 13 -10 0 -6 -8 2 -15 13 -15 24 0 12 -8
30 -18 41 -14 15 -15 21 -5 25 7 2 0 4 -15 4 -15 0 -26 -2 -23 -4 3 -3 -5 -14
-17 -24 -12 -10 -17 -18 -10 -19 6 0 15 5 18 10 9 14 35 13 35 -2 0 -6 -3 -8
-6 -5 -4 3 -15 2 -25 -4 -14 -7 -26 -5 -46 6 -24 14 -24 15 -6 12 13 -3 28 2
35 10 10 13 9 18 -9 33 -17 13 -19 20 -10 30 10 10 8 12 -6 6 -10 -3 -21 -6
-23 -6 -3 0 -2 -5 1 -10 4 -6 -5 -5 -20 2 -22 10 -28 8 -45 -10 -11 -12 -20
-26 -20 -32 0 -5 -4 -10 -10 -10 -6 0 -5 10 2 25 6 14 15 25 20 25 5 0 1 11
-8 25 -9 14 -12 25 -8 25 5 0 2 5 -6 11 -12 8 -12 10 -1 7 8 -2 15 -12 17 -22
3 -24 9 -29 43 -31 l29 -2 -30 43 c-35 52 -44 59 -52 39z m37 -45 c3 -11 1
-20 -4 -20 -5 0 -9 8 -9 18 0 10 -6 24 -12 32 -11 12 -10 12 3 2 9 -7 19 -22
22 -32z m59 -74 c22 -1 39 -26 18 -26 -6 0 -8 5 -5 10 10 16 -7 12 -27 -7 -18
-16 -24 -9 -19 21 1 5 -5 6 -13 3 -10 -4 -13 -1 -9 9 4 11 8 12 19 3 8 -7 24
-12 36 -13z m-57 -24 c-3 -3 -11 0 -18 7 -9 10 -8 11 6 5 10 -3 15 -9 12 -12z
m175 -36 c0 -3 -4 -8 -10 -11 -5 -3 -10 -1 -10 4 0 6 5 11 10 11 6 0 10 -2 10
-4z m-30 -17 c0 -5 -4 -8 -9 -4 -5 3 -12 1 -16 -5 -3 -5 0 -10 7 -10 7 0 19
-9 26 -20 7 -11 8 -20 3 -20 -5 0 -12 7 -15 16 -3 8 -10 13 -15 10 -5 -3 -12
2 -15 11 -4 9 -1 20 6 25 18 11 28 10 28 -3z"/>
<path d="M1545 1852 c-5 -4 -21 -19 -33 -34 -18 -20 -22 -31 -14 -44 7 -13 5
-22 -12 -35 -11 -10 -16 -18 -9 -19 6 0 15 5 18 10 3 6 14 10 23 10 12 -1 8
-6 -10 -16 -25 -13 -31 -13 -57 1 -37 19 -37 19 -45 -1 -9 -23 2 -36 23 -25
22 12 43 -1 35 -22 -3 -9 -9 -15 -13 -12 -4 2 -17 -2 -28 -10 -23 -16 -21 -46
5 -67 13 -11 15 -10 10 3 -4 9 -1 22 5 28 6 6 7 14 3 18 -4 4 -11 1 -16 -7 -6
-9 -10 -10 -10 -3 0 21 21 26 38 9 13 -12 13 -16 2 -16 -7 0 -10 -3 -7 -6 3
-4 2 -15 -4 -26 -6 -12 -7 -24 -1 -31 15 -19 22 -47 12 -47 -5 0 -10 10 -12
23 -2 15 -9 21 -23 20 -11 -1 -14 0 -7 3 20 9 13 22 -13 22 -14 0 -25 -4 -25
-9 0 -5 5 -9 11 -9 5 0 7 -5 3 -11 -10 -16 -26 15 -18 35 5 14 9 14 22 4 13
-11 14 -10 7 12 -4 14 -16 34 -27 45 -20 20 -20 20 -36 -4 -9 -13 -29 -36 -44
-52 -24 -27 -26 -33 -5 -30 4 0 7 -4 7 -9 0 -13 -17 -13 -25 0 -10 15 -17 12
-52 -21 -38 -35 -41 -44 -12 -46 16 -2 18 1 10 11 -14 17 10 29 37 19 15 -6
15 -5 3 10 -7 10 -9 17 -3 17 6 0 12 -5 14 -11 3 -9 9 -9 26 0 12 7 19 17 16
26 -9 21 35 87 53 81 8 -3 17 -6 19 -6 3 0 -4 -14 -16 -30 -22 -31 -19 -48 15
-72 6 -4 6 -8 1 -8 -5 0 -19 11 -31 24 -21 23 -21 24 -4 47 20 26 24 39 11 39
-5 0 -17 -16 -28 -36 -19 -35 -19 -36 0 -50 11 -8 16 -14 11 -14 -5 0 1 -7 13
-16 18 -12 26 -13 37 -4 8 7 12 16 9 21 -3 5 0 9 5 9 13 0 14 -10 3 -26 -11
-18 -52 -36 -67 -30 -15 5 -40 -19 -32 -32 3 -4 1 -14 -5 -22 -8 -12 -9 -12
-4 2 3 10 1 20 -5 23 -5 4 1 15 13 25 28 24 16 26 -17 4 -14 -9 -25 -12 -25
-7 0 18 50 34 70 23 31 -17 35 -11 9 13 l-24 23 -37 -23 c-21 -13 -38 -19 -38
-13 0 5 -4 10 -9 10 -5 0 -8 -11 -8 -25 0 -24 11 -34 20 -17 2 4 2 0 -1 -8 -3
-8 -4 -24 -4 -35 1 -25 -37 -87 -49 -79 -5 3 -9 1 -9 -5 0 -26 21 -17 47 21
27 40 40 47 92 52 20 2 54 36 35 36 -4 0 1 9 11 20 10 11 23 20 28 20 5 0 16
8 23 18 13 15 13 15 8 0 -5 -14 -1 -16 22 -12 38 7 38 7 19 44 -14 28 -15 34
-2 54 11 16 12 27 5 40 -19 35 48 110 77 86 9 -7 15 -8 20 0 3 5 0 10 -8 10
-21 0 -51 36 -37 45 6 4 9 13 6 21 -9 24 4 46 20 33 10 -8 13 -6 11 10 -1 22
-6 25 -22 13z m-20 -62 c3 -5 1 -10 -4 -10 -6 0 -11 5 -11 10 0 6 2 10 4 10 3
0 8 -4 11 -10z m-175 -324 c0 -3 -4 -8 -10 -11 -5 -3 -10 -1 -10 4 0 6 5 11
10 11 6 0 10 -2 10 -4z m-70 -36 c-8 -5 -17 -6 -20 -3 -3 3 1 8 8 10 6 3 9 10
6 16 -4 7 -1 7 7 -1 12 -11 12 -14 -1 -22z m75 10 c-3 -5 -12 -10 -18 -10 -7
0 -6 4 3 10 19 12 23 12 15 0z"/>
<path d="M1660 1832 c0 -5 7 -15 15 -22 8 -7 15 -8 15 -2 0 5 -7 15 -15 22 -8
7 -15 8 -15 2z"/>
<path d="M1461 1786 c-7 -9 -16 -14 -20 -12 -4 3 -7 -4 -8 -14 -2 -23 32 -33
48 -14 8 10 9 21 3 35 -9 19 -11 20 -23 5z m13 -21 c-4 -8 -11 -15 -16 -15 -6
0 -5 6 2 15 7 8 14 15 16 15 2 0 1 -7 -2 -15z"/>
<path d="M1817 1774 c-3 -3 -4 -11 -3 -17 2 -7 1 -9 -1 -4 -9 16 -20 6 -20
-18 0 -14 3 -25 8 -25 5 0 9 5 9 11 0 8 4 9 13 0 8 -6 17 -8 20 -4 4 3 7 4 7
0 0 -3 -11 -17 -24 -30 -23 -23 -24 -23 -47 -6 -26 20 -39 24 -39 11 0 -5 16
-17 36 -28 31 -17 37 -17 47 -4 7 8 21 22 32 30 19 14 19 14 5 -5 -8 -11 -18
-22 -22 -25 -4 -3 4 -19 18 -35 18 -21 23 -24 18 -10 -7 22 -7 29 0 89 4 31 0
42 -17 57 -24 20 -31 22 -40 13z m37 -30 c9 -3 16 -11 16 -16 0 -7 -5 -6 -13
1 -8 6 -17 8 -20 4 -4 -3 -7 -1 -7 5 0 14 2 14 24 6z"/>
<path d="M1272 1717 c-21 -22 -21 -23 -3 -34 15 -10 22 -8 35 6 15 17 13 51
-3 51 -4 0 -17 -10 -29 -23z m25 -23 c-3 -3 -12 -4 -19 -1 -8 3 -5 6 6 6 11 1
17 -2 13 -5z"/>
<path d="M1755 1730 c-12 -4 -27 -16 -35 -25 -15 -19 -15 -19 55 -68 26 -18
33 -37 14 -37 -5 0 -7 5 -4 10 3 6 2 10 -3 10 -13 0 -23 -27 -16 -44 3 -8 1
-17 -5 -21 -6 -3 -11 -15 -11 -26 0 -11 4 -18 9 -15 5 3 11 0 14 -8 7 -19 77
-17 99 2 10 8 15 19 12 23 -6 11 -24 12 -23 2 3 -20 -2 -30 -17 -30 -14 0 -14
2 -3 11 8 6 15 20 17 30 3 15 -3 12 -29 -13 -23 -24 -34 -29 -40 -20 -4 7 -6
16 -3 20 2 4 -1 11 -7 15 -8 5 -8 9 2 14 15 10 39 2 39 -12 0 -6 -6 -6 -14 2
-12 9 -15 8 -13 -9 2 -25 10 -26 32 -4 16 16 16 18 -5 35 -12 10 -19 18 -14
18 4 0 15 -7 24 -15 15 -14 19 -14 29 -1 10 12 8 21 -10 45 -12 16 -28 27 -35
24 -21 -8 -86 37 -80 54 3 8 6 17 6 19 0 3 14 -5 31 -17 29 -21 31 -21 47 -4
16 17 16 17 0 12 -28 -10 -51 2 -37 19 13 16 4 17 -26 4z m75 -115 c0 -8 5
-15 10 -15 6 0 10 -5 10 -10 0 -6 -7 -6 -18 1 -19 12 -26 39 -10 39 4 0 8 -7
8 -15z"/>
<path d="M1350 1690 c0 -5 5 -10 10 -10 6 0 10 5 10 10 0 6 -4 10 -10 10 -5 0
-10 -4 -10 -10z"/>
<path d="M1670 1690 c0 -5 5 -10 10 -10 6 0 10 5 10 10 0 6 -4 10 -10 10 -5 0
-10 -4 -10 -10z"/>
<path d="M1870 1657 c0 -4 5 -16 12 -26 9 -15 8 -24 -5 -44 -10 -16 -13 -28
-7 -32 6 -3 10 -1 10 6 0 20 31 48 46 42 8 -3 14 0 14 6 0 10 -6 12 -26 11 -3
-1 -14 9 -24 22 -11 13 -19 20 -20 15z"/>
<path d="M1206 1604 c-4 -9 -1 -23 5 -30 11 -14 3 -38 -10 -30 -11 7 -42 -50
-38 -72 3 -24 26 -54 36 -48 4 3 13 1 19 -3 9 -5 2 -18 -23 -45 -20 -21 -38
-36 -40 -34 -3 3 8 17 25 31 35 32 38 42 9 44 -17 2 -18 -1 -9 -13 10 -11 10
-14 -1 -15 -8 -1 -21 -3 -29 -4 -8 -1 -24 -3 -35 -4 -18 -1 -17 -4 8 -26 32
-29 52 -32 61 -9 3 8 10 13 14 10 12 -7 43 49 39 72 -3 24 -26 54 -36 48 -4
-3 -13 -1 -20 3 -15 9 55 85 89 96 11 3 20 11 20 16 0 14 -16 11 -30 -6 -7 -8
-20 -14 -29 -14 -13 1 -13 2 2 6 20 5 22 14 5 31 -16 16 -25 15 -32 -4z m23
-159 c3 -3 -7 -4 -23 -1 -16 3 -31 8 -35 11 -3 3 7 4 23 1 16 -3 31 -8 35 -11z
m-84 -75 c3 -5 1 -10 -4 -10 -6 0 -11 5 -11 10 0 6 2 10 4 10 3 0 8 -4 11 -10z"/>
<path d="M1195 1290 c-3 -5 -1 -10 4 -10 6 0 11 5 11 10 0 6 -2 10 -4 10 -3 0
-8 -4 -11 -10z"/>
<path d="M1245 1280 c-6 -10 4 -40 14 -40 9 0 31 22 31 31 0 10 -39 18 -45 9z"/>
<path d="M1110 1260 c0 -5 5 -10 10 -10 6 0 10 5 10 10 0 6 -4 10 -10 10 -5 0
-10 -4 -10 -10z"/>
<path d="M943 1120 c-13 -10 -23 -23 -23 -30 0 -6 12 0 27 14 32 30 28 43 -4
16z"/>
<path d="M1202 1120 c-18 -29 -15 -36 8 -15 20 18 26 35 12 35 -4 0 -13 -9
-20 -20z"/>
<path d="M1155 1101 c-3 -5 3 -12 12 -14 16 -4 16 -5 1 -6 -11 -1 -16 -9 -16
-23 2 -32 16 -47 38 -41 26 7 25 18 -2 37 -12 9 -17 16 -10 16 7 0 22 -11 34
-25 20 -23 22 -23 34 -7 9 12 9 21 2 29 -7 9 -7 13 1 13 6 0 11 4 11 9 0 5
-11 9 -25 9 -14 0 -25 -4 -25 -9 0 -5 5 -9 12 -9 6 0 8 -3 5 -7 -4 -4 -20 3
-37 15 -16 12 -31 18 -35 13z m85 -51 c0 -5 -2 -10 -4 -10 -3 0 -8 5 -11 10
-3 6 -1 10 4 10 6 0 11 -4 11 -10z m-55 -10 c3 -5 1 -10 -4 -10 -6 0 -11 5
-11 10 0 6 2 10 4 10 3 0 8 -4 11 -10z"/>
<path d="M1622 1084 c-7 -8 -17 -12 -23 -9 -5 4 -9 2 -9 -4 0 -5 3 -12 8 -15
10 -6 45 21 41 32 -2 6 -10 4 -17 -4z"/>
<path d="M1060 1025 c-7 -8 -19 -15 -27 -15 -8 0 -11 -5 -8 -11 4 -6 13 -8 21
-5 13 5 18 -6 15 -26 -2 -11 17 -10 24 1 3 5 0 13 -6 16 -6 4 -8 18 -5 31 7
28 4 30 -14 9z"/>
<path d="M1357 934 c-10 -10 -9 -24 2 -21 5 1 17 -7 25 -18 8 -11 16 -15 16
-9 0 18 -34 56 -43 48z"/>
<path d="M1110 910 c0 -5 5 -10 10 -10 6 0 10 5 10 10 0 6 -4 10 -10 10 -5 0
-10 -4 -10 -10z"/>
<path d="M1160 887 c0 -17 34 -49 43 -40 9 9 9 23 0 22 -20 -3 -34 2 -28 10 3
5 1 12 -5 16 -5 3 -10 0 -10 -8z"/>
<path d="M1225 860 c-3 -5 1 -10 10 -10 9 0 13 5 10 10 -3 6 -8 10 -10 10 -2
0 -7 -4 -10 -10z"/>
<path d="M1560 820 c0 -5 5 -10 11 -10 5 0 7 5 4 10 -3 6 -8 10 -11 10 -2 0
-4 -4 -4 -10z"/>
<path d="M2025 3020 c-3 -5 1 -10 10 -10 9 0 13 5 10 10 -3 6 -8 10 -10 10 -2
0 -7 -4 -10 -10z"/>
<path d="M2340 2960 c-6 -11 -15 -18 -21 -15 -5 4 -9 2 -9 -3 0 -17 13 -22 29
-9 14 11 14 10 2 -5 -11 -15 -11 -21 -1 -33 16 -19 26 -19 34 1 4 9 0 25 -9
34 -9 9 -13 25 -9 34 9 23 -3 20 -16 -4z m25 -50 c3 -5 1 -10 -4 -10 -6 0 -11
5 -11 10 0 6 2 10 4 10 3 0 8 -4 11 -10z"/>
<path d="M1900 2945 c-7 -8 -19 -15 -27 -15 -8 0 -12 -4 -9 -9 3 -5 -1 -11 -9
-14 -10 -4 -12 -1 -8 11 6 15 3 14 -15 -2 -27 -24 -27 -25 1 -23 25 2 95 52
86 62 -4 3 -12 -1 -19 -10z"/>
<path d="M2124 2942 c5 -14 3 -29 -4 -37 -8 -10 -9 -15 -2 -15 6 0 15 6 19 13
22 34 81 -23 67 -66 -6 -21 -6 -21 13 -4 11 9 23 14 26 11 12 -12 35 16 30 36
-5 19 -34 23 -49 7 -7 -6 10 -11 29 -8 4 0 7 -4 7 -9 0 -20 -35 -5 -53 23 -9
15 -25 30 -35 34 -9 3 -25 13 -36 22 -18 15 -18 15 -12 -7z"/>
<path d="M1945 2931 c-3 -5 -1 -12 5 -16 5 -3 10 1 10 9 0 18 -6 21 -15 7z"/>
<path d="M1700 2235 c7 -9 15 -13 17 -11 7 7 -7 26 -19 26 -6 0 -6 -6 2 -15z"/>
<path d="M2130 1290 c0 -5 5 -10 10 -10 6 0 10 5 10 10 0 6 -4 10 -10 10 -5 0
-10 -4 -10 -10z"/>
<path d="M2105 1240 c4 -6 11 -8 16 -5 14 9 11 15 -7 15 -8 0 -12 -5 -9 -10z"/>
<path d="M1812 1088 c-11 -11 -4 -48 9 -48 4 0 15 10 23 22 9 12 16 17 16 10
0 -7 -11 -22 -25 -34 -23 -20 -23 -22 -7 -34 12 -9 21 -9 29 -2 9 7 13 7 13
-1 0 -6 4 -11 9 -11 5 0 9 11 9 25 0 14 -4 25 -9 25 -5 0 -9 -5 -9 -12 0 -6
-3 -8 -6 -5 -4 4 1 18 10 33 17 24 18 25 31 7 8 -10 15 -13 15 -7 0 6 -9 19
-19 28 -18 17 -19 17 -24 -1 -4 -14 -5 -15 -6 -2 -1 18 -43 23 -59 7z m28 -12
c0 -3 -4 -8 -10 -11 -5 -3 -10 -1 -10 4 0 6 5 11 10 11 6 0 10 -2 10 -4z m10
-56 c0 -5 -5 -10 -11 -10 -5 0 -7 5 -4 10 3 6 8 10 11 10 2 0 4 -4 4 -10z"/>
<path d="M1750 1000 c0 -5 5 -10 10 -10 6 0 10 5 10 10 0 6 -4 10 -10 10 -5 0
-10 -4 -10 -10z"/>
<path d="M1667 1324 c-20 -11 -32 -12 -47 -4 -13 7 -26 7 -38 1 -24 -13 -47
-41 -34 -41 5 0 15 7 22 15 17 21 36 19 60 -7 14 -15 19 -30 15 -45 -5 -22 -3
-21 40 8 24 16 47 34 50 40 10 14 -11 11 -24 -5 -14 -17 -51 -28 -51 -15 0 5
8 9 18 9 25 0 41 18 35 41 -6 23 -10 23 -46 3z m33 -14 c0 -5 -8 -10 -18 -10
-10 0 -24 -6 -31 -12 -11 -11 -12 -10 -6 0 5 11 32 26 53 31 1 1 2 -3 2 -9z"/>
<path d="M1720 1330 c0 -5 9 -19 21 -31 15 -15 24 -18 32 -10 7 7 7 11 1 11
-6 0 -20 9 -32 20 -12 12 -22 16 -22 10z"/>
<path d="M1868 1281 c-6 -10 -17 -17 -24 -14 -6 2 -15 0 -19 -6 -3 -6 -1 -11
6 -11 7 0 21 -8 32 -17 19 -17 19 -17 12 5 -5 16 -1 29 11 43 10 11 12 19 6
19 -7 0 -17 -9 -24 -19z"/>
<path d="M1714 1259 c-9 -11 -23 -19 -31 -19 -7 0 -13 -4 -13 -9 0 -13 30 -35
37 -27 4 4 1 12 -7 17 -13 9 -13 10 0 6 8 -2 14 -13 13 -25 -3 -23 10 -30 52
-27 45 3 45 3 42 26 -1 12 5 24 13 26 13 4 13 3 0 -6 -8 -5 -11 -13 -7 -17 7
-8 37 14 37 27 0 5 -5 9 -12 9 -6 0 -20 8 -31 17 -26 24 -72 25 -93 2z m40
-11 c5 -10 7 -10 12 0 3 6 10 12 15 12 5 0 4 -9 -3 -20 -7 -10 -14 -17 -17
-15 -2 3 -9 1 -15 -5 -8 -6 -16 -2 -25 13 -11 18 -11 20 0 10 18 -18 34 -16
19 2 -8 9 -8 15 -2 15 6 0 13 -6 16 -12z m44 -18 c-7 -10 -14 -17 -17 -15 -4
4 18 35 25 35 2 0 -1 -9 -8 -20z m-28 -30 c0 -5 -4 -10 -10 -10 -5 0 -10 5
-10 10 0 6 5 10 10 10 6 0 10 -4 10 -10z"/>
<path d="M1350 1210 c0 -5 5 -10 10 -10 6 0 10 5 10 10 0 6 -4 10 -10 10 -5 0
-10 -4 -10 -10z"/>
<path d="M1540 1201 c-6 -12 -15 -19 -21 -16 -5 4 -9 2 -9 -4 0 -5 4 -12 10
-16 10 -6 46 42 37 51 -3 3 -10 -4 -17 -15z"/>
<path d="M865 1160 c3 -5 8 -10 11 -10 2 0 4 5 4 10 0 6 -5 10 -11 10 -5 0 -7
-4 -4 -10z"/>
<path d="M1750 1124 c0 -8 5 -12 10 -9 6 3 10 10 10 16 0 5 -4 9 -10 9 -5 0
-10 -7 -10 -16z"/>
</g>
</svg>
